Newsreader6pt-SemiBold.ufo
<glyph name="ampersand" format="2">
  <advance width="1715.48"/>
  <unicode hex="0026"/>
  <outline>
    <contour>
      <point x="762.776" y="818.7280000000001" type="line"/>
      <point x="1112.3519999999999" y="887.016"/>
      <point x="1201.4479999999999" y="991.056"/>
      <point x="1201.4479999999999" y="1169.088" type="curve" smooth="yes"/>
      <point x="1201.4479999999999" y="1337.08"/>
      <point x="1070.064" y="1438.24"/>
      <point x="770.328" y="1438.24" type="curve" smooth="yes"/>
      <point x="420.912" y="1438.24"/>
      <point x="288.008" y="1303.5120000000002"/>
      <point x="288.008" y="1108.312" type="curve" smooth="yes"/>
      <point x="288.008" y="986.4"/>
      <point x="323.552" y="901.88"/>
      <point x="461.768" y="754.8480000000001" type="curve" smooth="yes"/>
      <point x="1169.688" y="0.0" type="line"/>
      <point x="1638.656" y="0.0" type="line"/>
      <point x="1638.656" y="112.05600000000001" type="line"/>
      <point x="1448.8239999999998" y="162.38400000000001" type="line"/>
      <point x="756.8559999999999" y="894.312" type="line" smooth="yes"/>
      <point x="633.216" y="1024.92"/>
      <point x="606.728" y="1082.9279999999999"/>
      <point x="606.728" y="1156.936" type="curve" smooth="yes"/>
      <point x="606.728" y="1250.0"/>
      <point x="662.224" y="1292.4"/>
      <point x="769.2080000000001" y="1292.4" type="curve" smooth="yes"/>
      <point x="874.496" y="1292.4"/>
      <point x="921.536" y="1244.576"/>
      <point x="921.536" y="1153.3600000000001" type="curve" smooth="yes"/>
      <point x="921.536" y="1037.992"/>
      <point x="863.8" y="954.144"/>
      <point x="728.5039999999999" y="881.624" type="curve"/>
      <point x="523.576" y="783.864" type="line"/>
      <point x="217.20000000000002" y="711.7919999999999"/>
      <point x="95.536" y="574.9359999999999"/>
      <point x="95.536" y="354.304" type="curve" smooth="yes"/>
      <point x="95.536" y="114.792"/>
      <point x="226.232" y="-24.240000000000002"/>
      <point x="607.952" y="-24.240000000000002" type="curve" smooth="yes"/>
      <point x="831.248" y="-24.240000000000002"/>
      <point x="998.3919999999999" y="28.791999999999994"/>
      <point x="1155.5919999999999" y="178.608" type="curve"/>
      <point x="1216.1280000000002" y="237.48000000000002" type="line"/>
      <point x="1316.184" y="351.36"/>
      <point x="1412.904" y="508.272"/>
      <point x="1516.9840000000002" y="720.0640000000001" type="curve"/>
      <point x="1658.048" y="752.368" type="line"/>
      <point x="1658.048" y="864.0" type="line"/>
      <point x="1127.376" y="864.0" type="line"/>
      <point x="1127.376" y="752.368" type="line"/>
      <point x="1272.288" y="720.0640000000001" type="line"/>
      <point x="1250.096" y="535.368"/>
      <point x="1203.816" y="405.79200000000003"/>
      <point x="1133.816" y="319.184" type="curve"/>
      <point x="1075.944" y="264.096" type="line"/>
      <point x="991.088" y="191.536"/>
      <point x="888.5360000000001" y="157.256"/>
      <point x="756.952" y="157.256" type="curve" smooth="yes"/>
      <point x="508.896" y="157.256"/>
      <point x="420.56" y="252.656"/>
      <point x="420.56" y="464.272" type="curve" smooth="yes"/>
      <point x="420.56" y="567.528"/>
      <point x="451.32800000000003" y="655.352"/>
      <point x="550.0" y="723.296" type="curve"/>
    </contour>
  </outline>
</glyph>
<glyph name="parenright" format="2">
  <advance width="742.528"/>
  <unicode hex="0029"/>
  <outline>
    <contour>
      <point x="368.74399999999997" y="622.424" type="curve" smooth="yes"/>
      <point x="368.74399999999997" y="309.88"/>
      <point x="287.64799999999997" y="91.48"/>
      <point x="54.368" y="-128.37599999999998" type="curve"/>
      <point x="161.416" y="-243.96800000000002" type="line"/>
      <point x="532.9200000000001" y="57.48800000000001"/>
      <point x="650.248" y="311.0"/>
      <point x="650.248" y="622.424" type="curve" smooth="yes"/>
      <point x="650.248" y="933.848"/>
      <point x="532.9200000000001" y="1187.36"/>
      <point x="161.416" y="1488.816" type="curve"/>
      <point x="54.368" y="1373.2240000000002" type="line"/>
      <point x="287.64799999999997" y="1153.368"/>
      <point x="368.74399999999997" y="934.968"/>
    </contour>
  </outline>
</glyph>
<glyph name="colon" format="2">
  <advance width="655.5519999999999"/>
  <unicode hex="003A"/>
  <outline>
    <contour>
      <point x="327.77599999999995" y="354.632" type="curve" smooth="yes"/>
      <point x="208.60799999999998" y="354.632"/>
      <point x="132.192" y="285.368"/>
      <point x="132.192" y="167.136" type="curve" smooth="yes"/>
      <point x="132.192" y="48.480000000000004"/>
      <point x="208.60799999999998" y="-20.784000000000002"/>
      <point x="327.77599999999995" y="-20.784000000000002" type="curve" smooth="yes"/>
      <point x="446.94399999999996" y="-20.784000000000002"/>
      <point x="523.36" y="48.480000000000004"/>
      <point x="523.36" y="167.136" type="curve" smooth="yes"/>
      <point x="523.36" y="285.368"/>
      <point x="446.94399999999996" y="354.632"/>
    </contour>
    <contour>
      <point x="327.77599999999995" y="1053.264" type="curve" smooth="yes"/>
      <point x="208.60799999999998" y="1053.264"/>
      <point x="132.192" y="984.0"/>
      <point x="132.192" y="865.7679999999999" type="curve" smooth="yes"/>
      <point x="132.192" y="747.112"/>
      <point x="208.60799999999998" y="677.848"/>
      <point x="327.77599999999995" y="677.848" type="curve" smooth="yes"/>
      <point x="446.94399999999996" y="677.848"/>
      <point x="523.36" y="747.112"/>
      <point x="523.36" y="865.7679999999999" type="curve" smooth="yes"/>
      <point x="523.36" y="984.0"/>
      <point x="446.94399999999996" y="1053.264"/>
    </contour>
  </outline>
</glyph>
<glyph name="less" format="2">
  <advance width="1140.0"/>
  <unicode hex="003C"/>
  <outline>
    <contour>
      <point x="229.31199999999998" y="462.432" type="line"/>
      <point x="1014.856" y="803.4000000000001" type="line"/>
      <point x="1014.856" y="1022.736" type="line"/>
      <point x="103.84" y="616.744" type="line"/>
      <point x="103.84" y="420.49600000000004" type="line"/>
      <point x="1014.856" y="14.927999999999997" type="line"/>
      <point x="1014.856" y="238.95999999999998" type="line"/>
      <point x="229.31199999999998" y="581.232" type="line"/>
    </contour>
  </outline>
</glyph>
<glyph name="I" format="2">
  <advance width="928.3679999999999"/>
  <unicode hex="0049"/>
  <anchor x="464.18399999999997" y="1414.0" name="UCtop"/>
  <anchor x="629.624" y="0.0" name="right"/>
  <anchor x="464.18399999999997" y="0.0" name="bottom"/>
  <outline>
    <contour>
      <point x="825.152" y="118.72" type="line"/>
      <point x="641.024" y="165.416" type="line"/>
      <point x="641.024" y="1248.5839999999998" type="line"/>
      <point x="825.152" y="1295.28" type="line"/>
      <point x="825.152" y="1414.0" type="line"/>
      <point x="103.216" y="1414.0" type="line"/>
      <point x="103.216" y="1295.28" type="line"/>
      <point x="287.344" y="1248.5839999999998" type="line"/>
      <point x="287.344" y="165.416" type="line"/>
      <point x="103.216" y="118.72" type="line"/>
      <point x="103.216" y="0.0" type="line"/>
      <point x="825.152" y="0.0" type="line"/>
    </contour>
  </outline>
</glyph>
<glyph name="J" format="2">
  <advance width="1245.448"/>
  <unicode hex="004A"/>
  <anchor x="816.8639999999999" y="1414.0" name="UCtop"/>
  <anchor x="565.4" y="0.0" name="bottom"/>
  <outline>
    <contour>
      <point x="993.704" y="439.576" type="curve" smooth="yes"/>
      <point x="993.7040000000001" y="1248.5839999999998" type="line"/>
      <point x="1177.832" y="1295.28" type="line"/>
      <point x="1177.832" y="1414.0" type="line"/>
      <point x="455.896" y="1414.0" type="line"/>
      <point x="455.896" y="1295.28" type="line"/>
      <point x="640.024" y="1248.5839999999998" type="line"/>
      <point x="640.024" y="405.616" type="line" smooth="yes"/>
      <point x="640.024" y="248.248"/>
      <point x="574.168" y="192.216"/>
      <point x="421.712" y="192.216" type="curve" smooth="yes"/>
      <point x="276.096" y="192.216"/>
      <point x="200.87199999999999" y="331.08799999999997"/>
      <point x="154.328" y="331.08799999999997" type="curve" smooth="yes"/>
      <point x="77.848" y="331.08799999999997"/>
      <point x="24.976000000000003" y="277.576"/>
      <point x="24.976000000000003" y="190.464" type="curve" smooth="yes"/>
      <point x="24.976000000000003" y="67.48"/>
      <point x="120.44800000000001" y="-20.24"/>
      <point x="410.368" y="-20.24" type="curve" smooth="yes"/>
      <point x="820.12" y="-20.24"/>
      <point x="993.704" y="162.136"/>
    </contour>
  </outline>
</glyph>
<glyph name="M" format="2">
  <advance width="2347.368"/>
  <unicode hex="004D"/>
  <anchor x="1166.272" y="1414.0" name="UCtop"/>
  <anchor x="1110.832" y="0.0" name="bottom"/>
  <outline>
    <contour>
      <point x="2084.24" y="169.656" type="line"/>
      <point x="2020.9599999999998" y="1236.04" type="line"/>
      <point x="2205.632" y="1295.28" type="line"/>
      <point x="2205.632" y="1414.0" type="line"/>
      <point x="1512.464" y="1414.0" type="line"/>
      <point x="1160.1119999999999" y="280.288" type="line"/>
      <point x="1176.992" y="280.288" type="line"/>
      <point x="829.184" y="1414.0" type="line"/>
      <point x="126.49600000000001" y="1414.0" type="line"/>
      <point x="126.49600000000001" y="1295.28" type="line"/>
      <point x="326.79999999999995" y="1226.8000000000002" type="line"/>
      <point x="257.944" y="166.688" type="line"/>
      <point x="89.944" y="118.72" type="line"/>
      <point x="89.944" y="0.0" type="line"/>
      <point x="632.9599999999999" y="0.0" type="line"/>
      <point x="632.9599999999999" y="118.72" type="line"/>
      <point x="475.79200000000003" y="164.992" type="line"/>
      <point x="538.256" y="1206.0" type="line"/>
      <point x="527.528" y="1204.424" type="line"/>
      <point x="908.0479999999999" y="0.0" type="line"/>
      <point x="1285.336" y="0.0" type="line"/>
      <point x="1674.04" y="1218.9360000000001" type="line"/>
      <point x="1659.92" y="1220.5120000000002" type="line"/>
      <point x="1726.048" y="164.992" type="line"/>
      <point x="1565.9119999999998" y="118.72" type="line"/>
      <point x="1565.9119999999998" y="0.0" type="line"/>
      <point x="2265.576" y="0.0" type="line"/>
      <point x="2265.576" y="118.72" type="line"/>
    </contour>
  </outline>
</glyph>
<glyph name="N" format="2">
  <advance width="1823.016"/>
  <unicode hex="004E"/>
  <anchor x="943.856" y="1414.0" name="UCtop"/>
  <anchor x="952.3359999999999" y="0.0" name="bottom"/>
  <outline>
    <contour>
      <point x="288.736" y="164.56799999999998" type="line"/>
      <point x="109.216" y="118.72" type="line"/>
      <point x="109.216" y="0.0" type="line"/>
      <point x="696.96" y="0.0" type="line"/>
      <point x="696.96" y="118.72" type="line"/>
      <point x="507.072" y="164.56799999999998" type="line"/>
      <point x="507.072" y="1298.0" type="line"/>
      <point x="424.672" y="1281.888" type="line"/>
      <point x="1136.144" y="0.0" type="line"/>
      <point x="1558.976" y="0.0" type="line"/>
      <point x="1558.976" y="1249.432" type="line"/>
      <point x="1738.496" y="1295.28" type="line"/>
      <point x="1738.496" y="1414.0" type="line"/>
      <point x="1150.752" y="1414.0" type="line"/>
      <point x="1150.752" y="1295.28" type="line"/>
      <point x="1340.6399999999999" y="1249.432" type="line"/>
      <point x="1340.6399999999999" y="136.016" type="line"/>
      <point x="1402.5839999999998" y="226.10399999999998" type="line"/>
      <point x="739.016" y="1414.0" type="line"/>
      <point x="100.73599999999999" y="1414.0" type="line"/>
      <point x="100.73599999999999" y="1295.28" type="line"/>
      <point x="288.736" y="1240.952" type="line"/>
    </contour>
  </outline>
</glyph>
<glyph name="O" format="2">
  <advance width="1737.672"/>
  <unicode hex="004F"/>
  <anchor x="868.624" y="1414.0" name="UCtop"/>
  <anchor x="868.624" y="0.0" name="bottom"/>
  <anchor x="1207.3999999999999" y="1414.0" name="horn"/>
  <anchor x="1061.344" y="0.0" name="right"/>
  <outline>
    <contour>
      <point x="882.3119999999999" y="1438.24" type="curve" smooth="yes"/>
      <point x="403.08799999999997" y="1438.24"/>
      <point x="107.552" y="1153.9279999999999"/>
      <point x="107.552" y="705.424" type="curve" smooth="yes"/>
      <point x="107.552" y="259.92"/>
      <point x="384.31199999999995" y="-23.816000000000003"/>
      <point x="855.36" y="-23.816000000000003" type="curve" smooth="yes"/>
      <point x="1334.584" y="-23.816000000000003"/>
      <point x="1630.1200000000001" y="260.49600000000004"/>
      <point x="1630.1200000000001" y="709.0" type="curve" smooth="yes"/>
      <point x="1630.1200000000001" y="1154.504"/>
      <point x="1353.36" y="1438.24"/>
    </contour>
    <contour>
      <point x="873.3839999999999" y="201.272" type="curve" smooth="yes"/>
      <point x="595.592" y="201.272"/>
      <point x="467.112" y="388.776"/>
      <point x="467.112" y="753.4159999999999" type="curve" smooth="yes"/>
      <point x="467.112" y="1058.248"/>
      <point x="602.312" y="1213.152"/>
      <point x="864.288" y="1213.152" type="curve" smooth="yes"/>
      <point x="1142.08" y="1213.152"/>
      <point x="1270.56" y="1025.6480000000001"/>
      <point x="1270.56" y="661.008" type="curve" smooth="yes"/>
      <point x="1270.56" y="356.176"/>
      <point x="1135.36" y="201.272"/>
    </contour>
  </outline>
</glyph>
<glyph name="V" format="2">
  <advance width="1750.504"/>
  <unicode hex="0056"/>
  <anchor x="937.6479999999999" y="1414.0" name="UCtop"/>
  <anchor x="896.448" y="0.0" name="bottom"/>
  <outline>
    <contour>
      <point x="189.0" y="1246.888" type="line"/>
      <point x="685.496" y="-11.52" type="line"/>
      <point x="1107.9199999999998" y="-11.52" type="line"/>
      <point x="1561.472" y="1255.368" type="line"/>
      <point x="1729.472" y="1295.28" type="line"/>
      <point x="1729.472" y="1414.0" type="line"/>
      <point x="1153.344" y="1414.0" type="line"/>
      <point x="1153.344" y="1295.28" type="line"/>
      <point x="1327.048" y="1252.8239999999998" type="line"/>
      <point x="951.76" y="133.96800000000002" type="line"/>
      <point x="994.824" y="133.96800000000002" type="line"/>
      <point x="570.376" y="1255.368" type="line"/>
      <point x="745.352" y="1295.28" type="line"/>
      <point x="745.352" y="1414.0" type="line"/>
      <point x="3.4240000000000004" y="1414.0" type="line"/>
      <point x="3.4240000000000004" y="1295.28" type="line"/>
    </contour>
  </outline>
</glyph>
<glyph name="Y" format="2">
  <advance width="1672.304"/>
  <unicode hex="0059"/>
  <anchor x="900.368" y="1414.0" name="UCtop"/>
  <anchor x="857.576" y="0.0" name="bottom"/>
  <outline>
    <contour>
      <point x="167.944" y="1252.8239999999998" type="line"/>
      <point x="680.736" y="589.056" type="line"/>
      <point x="680.736" y="165.416" type="line"/>
      <point x="496.608" y="118.72" type="line"/>
      <point x="496.608" y="0.0" type="line"/>
      <point x="1218.544" y="0.0" type="line"/>
      <point x="1218.544" y="118.72" type="line"/>
      <point x="1034.416" y="165.416" type="line"/>
      <point x="1034.416" y="595.6640000000001" type="line"/>
      <point x="1497.5120000000002" y="1252.8239999999998" type="line"/>
      <point x="1639.576" y="1295.28" type="line"/>
      <point x="1639.576" y="1414.0" type="line"/>
      <point x="1087.984" y="1414.0" type="line"/>
      <point x="1087.984" y="1295.28" type="line"/>
      <point x="1255.424" y="1252.8239999999998" type="line"/>
      <point x="892.72" y="723.36" type="line"/>
      <point x="992.168" y="727.328" type="line"/>
      <point x="601.432" y="1252.8239999999998" type="line"/>
      <point x="764.96" y="1295.28" type="line"/>
      <point x="764.96" y="1414.0" type="line"/>
      <point x="7.88" y="1414.0" type="line"/>
      <point x="7.88" y="1295.28" type="line"/>
    </contour>
  </outline>
</glyph>
<glyph name="backslash" format="2">
  <advance width="946.968"/>
  <unicode hex="005C"/>
  <outline>
    <contour>
      <point x="891.328" y="0.0" type="line"/>
      <point x="300.904" y="1414.0" type="line"/>
      <point x="53.064" y="1414.0" type="line"/>
      <point x="644.064" y="0.0" type="line"/>
    </contour>
  </outline>
</glyph>
<glyph name="bracketright" format="2">
  <advance width="836.024"/>
  <unicode hex="005D"/>
  <outline>
    <contour>
      <point x="630.712" y="1464.576" type="line"/>
      <point x="63.032000000000004" y="1464.576" type="line"/>
      <point x="63.032000000000004" y="1299.416" type="line"/>
      <point x="361.144" y="1299.416" type="line"/>
      <point x="361.144" y="-54.144" type="line"/>
      <point x="63.032000000000004" y="-54.144" type="line"/>
      <point x="63.032000000000004" y="-219.304" type="line"/>
      <point x="630.712" y="-219.304" type="line"/>
    </contour>
  </outline>
</glyph>
<glyph name="c" format="2">
  <advance width="1156.2079999999999"/>
  <unicode hex="0063"/>
  <anchor x="622.2" y="1032.48" name="top"/>
  <anchor x="1074.1360000000002" y="0.0" name="right"/>
  <anchor x="613.128" y="0.0" name="bottom"/>
  <outline>
    <contour>
      <point x="712.2959999999999" y="1056.72" type="curve" smooth="yes"/>
      <point x="312.56470588235294" y="1056.72"/>
      <point x="90.552" y="839.2800000000001"/>
      <point x="90.552" y="500.544" type="curve" smooth="yes"/>
      <point x="90.552" y="158.608"/>
      <point x="294.368" y="-24.240000000000002"/>
      <point x="624.832" y="-24.240000000000002" type="curve" smooth="yes"/>
      <point x="741.2879999999999" y="-24.240000000000002"/>
      <point x="880.9599999999999" y="25.4"/>
      <point x="1063.96" y="142.656" type="curve"/>
      <point x="1063.96" y="272.4" type="line"/>
      <point x="948.7760000000001" y="233.848"/>
      <point x="841.896" y="213.35999999999999"/>
      <point x="723.9359999999999" y="213.35999999999999" type="curve" smooth="yes"/>
      <point x="487.056" y="213.35999999999999"/>
      <point x="385.76800000000003" y="317.104"/>
      <point x="385.76800000000003" y="583.376" type="curve" smooth="yes"/>
      <point x="385.76800000000003" y="811.984"/>
      <point x="479.3777123745819" y="901.424"/>
      <point x="639.472" y="901.424" type="curve" smooth="yes"/>
      <point x="705.048" y="901.424"/>
      <point x="898.1919999999999" y="693.568"/>
      <point x="938.0319999999999" y="693.568" type="curve" smooth="yes"/>
      <point x="1013.368" y="693.568"/>
      <point x="1090.2640000000001" y="761.264"/>
      <point x="1090.2640000000001" y="854.9200000000001" type="curve" smooth="yes"/>
      <point x="1090.2640000000001" y="958.8720000000001"/>
      <point x="999.184" y="1056.72"/>
    </contour>
  </outline>
</glyph>
<glyph name="f" format="2">
  <advance width="983.376"/>
  <unicode hex="0066"/>
  <anchor x="732.0559999999999" y="1464.0" name="UCtop"/>
  <anchor x="417.0" y="0.0" name="bottom"/>
  <outline>
    <contour>
      <point x="397.22400000000005" y="835.504" type="line"/>
      <point x="939.616" y="835.504" type="line"/>
      <point x="939.616" y="1032.48" type="line"/>
      <point x="399.768" y="1032.48" type="line"/>
      <point x="275.91200000000003" y="1060.296" type="line"/>
      <point x="51.495999999999995" y="969.4879999999999" type="line"/>
      <point x="51.495999999999995" y="894.8879999999999" type="line"/>
      <point x="259.064" y="810.6560000000001" type="line"/>
    </contour>
    <contour>
      <point x="574.9359999999999" y="142.784" type="line"/>
      <point x="574.9359999999999" y="1135.616" type="line" smooth="yes"/>
      <point x="574.9359999999999" y="1257.832"/>
      <point x="631.4" y="1316.232"/>
      <point x="781.168" y="1316.232" type="curve" smooth="yes"/>
      <point x="957.008" y="1316.232"/>
      <point x="999.768" y="1159.056"/>
      <point x="1039.008" y="1159.056" type="curve" smooth="yes"/>
      <point x="1136.752" y="1159.056"/>
      <point x="1197.232" y="1221.44"/>
      <point x="1197.232" y="1304.072" type="curve" smooth="yes"/>
      <point x="1197.232" y="1412.064"/>
      <point x="1124.712" y="1488.24"/>
      <point x="802.992" y="1488.24" type="curve" smooth="yes"/>
      <point x="440.488" y="1488.24"/>
      <point x="259.064" y="1351.5120000000002"/>
      <point x="259.064" y="1051.448" type="curve" smooth="yes"/>
      <point x="259.064" y="142.784" type="line"/>
      <point x="111.14399999999999" y="105.75200000000001" type="line"/>
      <point x="111.14399999999999" y="0.0" type="line"/>
      <point x="743.432" y="0.0" type="line"/>
      <point x="743.432" y="105.75200000000001" type="line"/>
    </contour>
  </outline>
</glyph>
<glyph name="l" format="2">
  <advance width="734.928"/>
  <unicode hex="006C"/>
  <anchor x="351.28" y="1464.0" name="UCtop"/>
  <anchor x="527.128" y="1464.0" name="right"/>
  <anchor x="369.192" y="0.0" name="bottom"/>
  <anchor x="805.304" y="512.0" name="mid"/>
  <outline>
    <contour>
      <point x="527.128" y="142.784" type="line"/>
      <point x="527.128" y="1242.384" type="line"/>
      <point x="549.672" y="1488.24" type="line"/>
      <point x="473.752" y="1488.24" type="line"/>
      <point x="7.671999999999999" y="1406.3680000000002" type="line"/>
      <point x="7.671999999999999" y="1304.896" type="line"/>
      <point x="85.672" y="1265.99397447148"/>
      <point x="185.256" y="1219.08734184284"/>
      <point x="211.256" y="1206.1200000000001" type="curve"/>
      <point x="211.256" y="142.784" type="line"/>
      <point x="63.336000000000006" y="105.75200000000001" type="line"/>
      <point x="63.336000000000006" y="0.0" type="line"/>
      <point x="669.8639999999999" y="0.0" type="line"/>
      <point x="669.8639999999999" y="105.75200000000001" type="line"/>
    </contour>
  </outline>
</glyph>
<glyph name="m" format="2">
  <advance width="2124.096"/>
  <unicode hex="006D"/>
  <anchor x="1082.76" y="1032.48" name="top"/>
  <anchor x="1082.76" y="0.0" name="bottom"/>
  <outline>
    <contour>
      <point x="557.368" y="827.456" type="line"/>
      <point x="472.536" y="1059.6000000000001" type="line"/>
      <point x="411.64" y="1059.6000000000001" type="line"/>
      <point x="71.944" y="933.6" type="line"/>
      <point x="71.944" y="865.888" type="line"/>
      <point x="162.94400000000002" y="796.122517327976"/>
      <point x="219.496" y="755.0663804262036"/>
      <point x="241.496" y="738.1999999999999" type="curve"/>
      <point x="241.496" y="142.784" type="line"/>
      <point x="93.576" y="105.75200000000001" type="line"/>
      <point x="93.576" y="0.0" type="line"/>
      <point x="671.2719999999999" y="0.0" type="line"/>
      <point x="671.2719999999999" y="105.75200000000001" type="line"/>
      <point x="557.368" y="136.848" type="line"/>
    </contour>
    <contour>
      <point x="1240.696" y="758.328" type="line" smooth="yes"/>
      <point x="1240.696" y="965.456"/>
      <point x="1137.9792516129032" y="1056.72"/>
      <point x="915.9759999999999" y="1056.72" type="curve" smooth="yes"/>
      <point x="805.608" y="1056.72"/>
      <point x="780.272" y="1046.84"/>
      <point x="518.288" y="844.2479999999999" type="curve"/>
      <point x="534.984" y="767.568" type="line"/>
      <point x="603.928" y="786.784"/>
      <point x="683.696" y="799.696"/>
      <point x="753.464" y="799.696" type="curve" smooth="yes"/>
      <point x="881.0880000000001" y="799.696"/>
      <point x="924.824" y="756.752"/>
      <point x="924.824" y="658.28" type="curve" smooth="yes"/>
      <point x="924.824" y="136.848" type="line"/>
      <point x="810.9200000000001" y="105.75200000000001" type="line"/>
      <point x="810.9200000000001" y="0.0" type="line"/>
      <point x="1354.6000000000001" y="0.0" type="line"/>
      <point x="1354.6000000000001" y="105.75200000000001" type="line"/>
      <point x="1240.696" y="136.848" type="line"/>
    </contour>
    <contour>
      <point x="1924.024" y="750.4159999999999" type="line" smooth="yes"/>
      <point x="1924.024" y="949.904"/>
      <point x="1820.664" y="1056.72"/>
      <point x="1597.728" y="1056.72" type="curve" smooth="yes"/>
      <point x="1486.36" y="1056.72"/>
      <point x="1461.4479999999999" y="1046.84"/>
      <point x="1197.312" y="842.672" type="curve"/>
      <point x="1214.008" y="766.992" type="line"/>
      <point x="1282.952" y="786.2080000000001"/>
      <point x="1364.144" y="799.696"/>
      <point x="1434.6399999999999" y="799.696" type="curve" smooth="yes"/>
      <point x="1562.84" y="799.696"/>
      <point x="1608.152" y="756.6"/>
      <point x="1608.152" y="657.704" type="curve" smooth="yes"/>
      <point x="1608.152" y="136.848" type="line"/>
      <point x="1494.2479999999998" y="105.75200000000001" type="line"/>
      <point x="1494.2479999999998" y="0.0" type="line"/>
      <point x="2072.52" y="0.0" type="line"/>
      <point x="2072.52" y="105.75200000000001" type="line"/>
      <point x="1924.024" y="142.784" type="line"/>
    </contour>
  </outline>
</glyph>
<glyph name="n" format="2">
  <advance width="1478.832"/>
  <unicode hex="006E"/>
  <anchor x="764.128" y="1032.48" name="top"/>
  <anchor x="745.856" y="0.0" name="bottom"/>
  <outline>
    <contour>
      <point x="557.368" y="827.456" type="line"/>
      <point x="472.536" y="1059.6000000000001" type="line"/>
      <point x="411.64" y="1059.6000000000001" type="line"/>
      <point x="71.944" y="933.6" type="line"/>
      <point x="71.944" y="865.888" type="line"/>
      <point x="162.94400000000002" y="796.122517327976"/>
      <point x="219.496" y="755.0663804262036"/>
      <point x="241.496" y="738.1999999999999" type="curve"/>
      <point x="241.496" y="142.784" type="line"/>
      <point x="93.576" y="105.75200000000001" type="line"/>
      <point x="93.576" y="0.0" type="line"/>
      <point x="671.272" y="0.0" type="line"/>
      <point x="671.272" y="105.75200000000001" type="line"/>
      <point x="557.368" y="136.848" type="line"/>
    </contour>
    <contour>
      <point x="849.136" y="105.75200000000001" type="line"/>
      <point x="849.136" y="0.0" type="line"/>
      <point x="1428.256" y="0.0" type="line"/>
      <point x="1428.256" y="105.75200000000001" type="line"/>
      <point x="1279.336" y="142.784" type="line"/>
      <point x="1279.336" y="734.808" type="line" smooth="yes"/>
      <point x="1279.336" y="943.6"/>
      <point x="1171.3999999999999" y="1056.72"/>
      <point x="937.736" y="1056.72" type="curve" smooth="yes"/>
      <point x="821.0640000000001" y="1056.72"/>
      <point x="794.576" y="1046.264"/>
      <point x="518.288" y="832.52" type="curve"/>
      <point x="535.984" y="763.84" type="line"/>
      <point x="610.928" y="785.6320000000001"/>
      <point x="698.8480000000001" y="799.696"/>
      <point x="774.92" y="799.696" type="curve" smooth="yes"/>
      <point x="914.424" y="799.696"/>
      <point x="963.464" y="752.6"/>
      <point x="963.464" y="644.824" type="curve" smooth="yes"/>
      <point x="963.464" y="136.848" type="line"/>
    </contour>
  </outline>
</glyph>
<glyph name="o" format="2">
  <advance width="1312.368"/>
  <unicode hex="006F"/>
  <anchor x="656.472" y="1032.48" name="top"/>
  <anchor x="656.472" y="0.0" name="bottom"/>
  <anchor x="870.1919999999999" y="1032.48" name="horn"/>
  <anchor x="860.192" y="0.0" name="right"/>
  <outline>
    <contour>
      <point x="647.4399999999999" y="176.64000000000001" type="curve" smooth="yes"/>
      <point x="477.504" y="176.64000000000001"/>
      <point x="404.944" y="288.2"/>
      <point x="404.944" y="537.696" type="curve" smooth="yes"/>
      <point x="404.944" y="762.496"/>
      <point x="488.72" y="855.84"/>
      <point x="664.928" y="855.84" type="curve" smooth="yes"/>
      <point x="834.864" y="855.84"/>
      <point x="907.424" y="744.28"/>
      <point x="907.424" y="494.784" type="curve" smooth="yes"/>
      <point x="907.424" y="269.984"/>
      <point x="823.648" y="176.64000000000001"/>
    </contour>
    <contour>
      <point x="642.232" y="-24.240000000000002" type="curve" smooth="yes"/>
      <point x="1005.0640000000001" y="-24.240000000000002"/>
      <point x="1221.392" y="181.64"/>
      <point x="1221.392" y="519.208" type="curve" smooth="yes"/>
      <point x="1221.392" y="852.384"/>
      <point x="1017.336" y="1056.72"/>
      <point x="670.136" y="1056.72" type="curve" smooth="yes"/>
      <point x="307.30400000000003" y="1056.72"/>
      <point x="90.976" y="850.8399999999999"/>
      <point x="90.976" y="513.272" type="curve" smooth="yes"/>
      <point x="90.976" y="180.096"/>
      <point x="295.032" y="-24.240000000000002"/>
    </contour>
  </outline>
</glyph>
<glyph name="s" format="2">
  <advance width="1136.328"/>
  <unicode hex="0073"/>
  <anchor x="561.136" y="1032.48" name="top"/>
  <anchor x="577.1039999999999" y="0.0" name="bottom"/>
  <outline>
    <contour>
      <point x="622.5840000000001" y="1056.72" type="curve" smooth="yes"/>
      <point x="292.368" y="1056.72"/>
      <point x="110.888" y="945.392"/>
      <point x="110.888" y="731.3439999999999" type="curve" smooth="yes"/>
      <point x="110.888" y="548.632"/>
      <point x="207.24" y="474.584"/>
      <point x="408.704" y="438.952" type="curve" smooth="yes"/>
      <point x="610.168" y="403.32"/>
      <point x="748.992" y="405.296"/>
      <point x="748.992" y="274.488" type="curve" smooth="yes"/>
      <point x="748.992" y="182.56799999999998"/>
      <point x="674.464" y="137.624"/>
      <point x="485.424" y="137.624" type="curve" smooth="yes"/>
      <point x="404.304" y="137.624"/>
      <point x="302.432" y="145.89600000000002"/>
      <point x="237.488" y="164.38400000000001" type="curve"/>
      <point x="383.384" y="47.512" type="line"/>
      <point x="236.096" y="324.576" type="line"/>
      <point x="95.792" y="324.576" type="line"/>
      <point x="141.76000000000002" y="20.736000000000004" type="line"/>
      <point x="229.424" y="-5.632"/>
      <point x="381.32800000000003" y="-21.936000000000003"/>
      <point x="513.344" y="-21.936000000000003" type="curve" smooth="yes"/>
      <point x="881.048" y="-21.936000000000003"/>
      <point x="1046.3200000000002" y="105.632"/>
      <point x="1046.3200000000002" y="326.296" type="curve" smooth="yes"/>
      <point x="1046.3200000000002" y="553.64"/>
      <point x="894.0559999999999" y="610.504"/>
      <point x="690.472" y="639.1360000000001" type="curve" smooth="yes"/>
      <point x="486.888" y="667.7679999999999"/>
      <point x="396.496" y="685.7040000000001"/>
      <point x="396.496" y="791.0559999999999" type="curve" smooth="yes"/>
      <point x="396.496" y="866.336"/>
      <point x="463.384" y="904.856"/>
      <point x="613.1519999999999" y="904.856" type="curve" smooth="yes"/>
      <point x="675.704" y="904.856"/>
      <point x="771.312" y="890.4"/>
      <point x="861.104" y="862.336" type="curve"/>
      <point x="706.768" y="985.48" type="line"/>
      <point x="839.8480000000001" y="741.72" type="line"/>
      <point x="983.6320000000001" y="741.72" type="line"/>
      <point x="954.48" y="1015.7760000000001" type="line"/>
      <point x="841.688" y="1044.6879999999999"/>
      <point x="743.784" y="1056.72"/>
    </contour>
  </outline>
</glyph>
<glyph name="y" format="2">
  <advance width="1364.384"/>
  <unicode hex="0079"/>
  <anchor x="721.032" y="1032.48" name="top"/>
  <anchor x="1005.7280000000001" y="-108.072" name="bottom"/>
  <outline>
    <contour>
      <point x="863.648" y="160.744" type="line"/>
      <point x="499.92" y="892.664" type="line"/>
      <point x="634.48" y="927.912" type="line"/>
      <point x="634.48" y="1032.48" type="line"/>
      <point x="17.432000000000002" y="1032.48" type="line"/>
      <point x="17.432000000000002" y="929.184" type="line"/>
      <point x="158.864" y="880.0" type="line"/>
      <point x="652.624" y="-55.19200000000001" type="line"/>
    </contour>
    <contour>
      <point x="341.192" y="-465.0" type="curve" smooth="yes"/>
      <point x="543.328" y="-465.0"/>
      <point x="670.096" y="-367.432"/>
      <point x="767.544" y="-142.72" type="curve" smooth="yes"/>
      <point x="1216.7359999999999" y="895.304" type="line"/>
      <point x="1330.288" y="927.912" type="line"/>
      <point x="1330.288" y="1032.48" type="line"/>
      <point x="875.36" y="1032.48" type="line"/>
      <point x="875.36" y="927.912" type="line"/>
      <point x="1001.224" y="891.576" type="line"/>
      <point x="700.92" y="124.66399999999999" type="line"/>
      <point x="658.056" y="60.288" type="line"/>
      <point x="621.024" y="-11.99199999999999" type="line" smooth="yes"/>
      <point x="563.344" y="-129.87199999999999"/>
      <point x="511.67199999999997" y="-186.424"/>
      <point x="402.528" y="-186.424" type="curve" smooth="yes"/>
      <point x="322.66400000000004" y="-186.424"/>
      <point x="220.296" y="-163.544"/>
      <point x="185.81599999999997" y="-163.544" type="curve" smooth="yes"/>
      <point x="161.96800000000002" y="-163.544"/>
      <point x="117.488" y="-224.2"/>
      <point x="117.488" y="-295.072" type="curve" smooth="yes"/>
      <point x="117.488" y="-404.64000000000004"/>
      <point x="190.24" y="-465.0"/>
    </contour>
  </outline>
</glyph>
<glyph name="z" format="2">
  <advance width="1168.104"/>
  <unicode hex="007A"/>
  <anchor x="601.096" y="1032.48" name="top"/>
  <anchor x="578.376" y="0.0" name="bottom"/>
  <outline>
    <contour>
      <point x="104.784" y="0.0" type="line"/>
      <point x="1016.528" y="0.0" type="line"/>
      <point x="1108.856" y="407.096" type="line"/>
      <point x="989.8639999999999" y="407.096" type="line"/>
      <point x="765.6400000000001" y="57.928" type="line"/>
      <point x="910.712" y="180.52" type="line"/>
      <point x="293.384" y="180.51999999999998" type="line"/>
      <point x="395.528" y="67.928" type="line"/>
      <point x="1056.288" y="906.664" type="line"/>
      <point x="1056.288" y="1032.48" type="line"/>
      <point x="279.296" y="1032.48" type="line"/>
      <point x="224.336" y="1056.72" type="line"/>
      <point x="127.456" y="1056.72" type="line"/>
      <point x="86.008" y="670.016" type="line"/>
      <point x="210.35999999999999" y="670.016" type="line"/>
      <point x="373.928" y="1000.784" type="line"/>
      <point x="171.21599999999998" y="852.808" type="line"/>
      <point x="867.9680000000001" y="852.808" type="line"/>
      <point x="752.064" y="961.128" type="line"/>
      <point x="104.784" y="127.512" type="line"/>
    </contour>
  </outline>
</glyph>
<glyph name="braceleft" format="2">
  <advance width="816.552"/>
  <unicode hex="007B"/>
  <outline>
    <contour>
      <point x="67.94399999999999" y="547.312" type="line"/>
      <point x="142.368" y="545.4639999999999" type="line" smooth="yes"/>
      <point x="243.824" y="542.616"/>
      <point x="284.16" y="503.976"/>
      <point x="284.16" y="419.52000000000004" type="curve" smooth="yes"/>
      <point x="284.16" y="296.48"/>
      <point x="228.312" y="184.392"/>
      <point x="228.312" y="48.728" type="curve" smooth="yes"/>
      <point x="228.312" y="-86.24"/>
      <point x="327.456" y="-215.84799999999998"/>
      <point x="556.9359999999999" y="-232.424" type="curve" smooth="yes"/>
      <point x="727.6719999999999" y="-244.544" type="line"/>
      <point x="743.064" y="-91.99199999999999" type="line"/>
      <point x="656.128" y="-80.72" type="line" smooth="yes"/>
      <point x="551.664" y="-67.416"/>
      <point x="522.328" y="-10.256"/>
      <point x="522.328" y="82.112" type="curve" smooth="yes"/>
      <point x="522.328" y="181.568"/>
      <point x="540.848" y="285.66400000000004"/>
      <point x="540.848" y="379.43199999999996" type="curve" smooth="yes"/>
      <point x="540.848" y="525.792"/>
      <point x="459.06399999999996" y="612.456"/>
      <point x="252.744" y="651.48" type="curve"/>
      <point x="252.744" y="591.64" type="line"/>
      <point x="459.06399999999996" y="630.0880000000001"/>
      <point x="540.848" y="716.752"/>
      <point x="540.848" y="864.264" type="curve" smooth="yes"/>
      <point x="540.848" y="957.456"/>
      <point x="522.328" y="1062.128"/>
      <point x="522.328" y="1161.008" type="curve" smooth="yes"/>
      <point x="522.328" y="1253.952"/>
      <point x="551.664" y="1310.536"/>
      <point x="656.128" y="1323.8400000000001" type="curve" smooth="yes"/>
      <point x="743.064" y="1335.1119999999999" type="line"/>
      <point x="727.6719999999999" y="1488.24" type="line"/>
      <point x="556.9359999999999" y="1476.1200000000001" type="line" smooth="yes"/>
      <point x="327.45599999999996" y="1459.5439999999999"/>
      <point x="228.312" y="1328.784"/>
      <point x="228.312" y="1193.816" type="curve" smooth="yes"/>
      <point x="228.312" y="1059.3039999999999"/>
      <point x="284.16" y="947.216"/>
      <point x="284.16" y="824.176" type="curve" smooth="yes"/>
      <point x="284.16" y="739.144"/>
      <point x="243.824" y="700.5039999999999"/>
      <point x="142.368" y="697.6560000000001" type="curve" smooth="yes"/>
      <point x="67.94399999999999" y="695.232" type="line"/>
    </contour>
  </outline>
</glyph>
<glyph name="bar" format="2">
  <advance width="631.9839999999999"/>
  <unicode hex="007C"/>
  <outline>
    <contour>
      <point x="206.312" y="-465.0" type="line"/>
      <point x="425.672" y="-465.0" type="line"/>
      <point x="425.672" y="1535.0" type="line"/>
      <point x="206.312" y="1535.0" type="line"/>
    </contour>
  </outline>
</glyph>
<glyph name="exclamdown" format="2">
  <advance width="674.272"/>
  <unicode hex="00A1"/>
  <outline>
    <contour>
      <point x="145.32800000000003" y="-326.504" type="line" smooth="yes"/>
      <point x="143.632" y="-376.73600000000005"/>
      <point x="170.75199999999998" y="-404.33599999999996"/>
      <point x="337.13599999999997" y="-404.33599999999996" type="curve" smooth="yes"/>
      <point x="502.67199999999997" y="-404.33599999999996"/>
      <point x="530.64" y="-376.73600000000005"/>
      <point x="528.944" y="-326.504" type="curve" smooth="yes"/>
      <point x="526.8240000000001" y="-247.99200000000002" type="line" smooth="yes"/>
      <point x="523.856" y="-171.25600000000003"/>
      <point x="454.23199999999997" y="342.84000000000003"/>
      <point x="433.904" y="542.36" type="curve"/>
      <point x="240.368" y="542.36" type="line"/>
      <point x="220.616" y="342.84000000000003"/>
      <point x="150.416" y="-171.25600000000003"/>
      <point x="147.44799999999998" y="-247.99200000000002" type="curve" smooth="yes"/>
    </contour>
    <contour>
      <point x="337.136" y="685.904" type="curve" smooth="yes"/>
      <point x="461.81600000000003" y="685.904"/>
      <point x="536.536" y="749.656"/>
      <point x="536.536" y="865.768" type="curve" smooth="yes"/>
      <point x="536.536" y="984.0"/>
      <point x="461.81600000000003" y="1049.024"/>
      <point x="337.136" y="1049.024" type="curve" smooth="yes"/>
      <point x="212.456" y="1049.024"/>
      <point x="137.73600000000002" y="984.0"/>
      <point x="137.73600000000002" y="865.768" type="curve" smooth="yes"/>
      <point x="137.73600000000002" y="749.656"/>
      <point x="212.456" y="685.904"/>
    </contour>
  </outline>
</glyph>
<glyph name="brokenbar" format="2">
  <advance width="631.9839999999999"/>
  <unicode hex="00A6"/>
  <outline>
    <contour>
      <point x="425.672" y="753.8" type="line"/>
      <point x="425.672" y="1535.0" type="line"/>
      <point x="206.312" y="1535.0" type="line"/>
      <point x="206.312" y="753.8" type="line"/>
    </contour>
    <contour>
      <point x="206.312" y="-465.0" type="line"/>
      <point x="425.672" y="-465.0" type="line"/>
      <point x="425.672" y="316.2" type="line"/>
      <point x="206.312" y="316.2" type="line"/>
    </contour>
  </outline>
</glyph>
<glyph name="guillemotleft" format="2">
  <advance width="1356.264"/>
  <unicode hex="00AB"/>
  <outline>
    <contour>
      <point x="384.32" y="566.448" type="line"/>
      <point x="384.32" y="477.55199999999996" type="line"/>
      <point x="678.48" y="900.664" type="line"/>
      <point x="547.4720000000001" y="1021.5840000000001" type="line"/>
      <point x="92.67200000000001" y="619.376" type="line"/>
      <point x="92.67200000000001" y="424.62399999999997" type="line"/>
      <point x="547.4720000000001" y="22.416" type="line"/>
      <point x="678.48" y="143.33599999999998" type="line"/>
    </contour>
    <contour>
      <point x="966.4" y="566.448" type="line"/>
      <point x="966.4" y="477.55199999999996" type="line"/>
      <point x="1260.56" y="900.664" type="line"/>
      <point x="1129.552" y="1021.5840000000001" type="line"/>
      <point x="674.752" y="619.376" type="line"/>
      <point x="674.752" y="424.62399999999997" type="line"/>
      <point x="1129.552" y="22.416" type="line"/>
      <point x="1260.56" y="143.33599999999998" type="line"/>
    </contour>
  </outline>
</glyph>
<glyph name="uni00B3" format="2">
  <advance width="802.832"/>
  <unicode hex="00B3"/>
  <outline>
    <contour>
      <point x="314.784" y="647.76" type="curve" smooth="yes"/>
      <point x="609.008" y="647.76"/>
      <point x="727.28" y="747.76"/>
      <point x="727.28" y="915.12" type="curve" smooth="yes"/>
      <point x="727.28" y="1050.208"/>
      <point x="615.136" y="1112.936"/>
      <point x="436.50399999999996" y="1099.24" type="curve"/>
      <point x="449.288" y="1092.24" type="line"/>
      <point x="611.792" y="1111.2079999999999"/>
      <point x="677.976" y="1178.7839999999999"/>
      <point x="677.976" y="1267.968" type="curve" smooth="yes"/>
      <point x="677.976" y="1373.3600000000001"/>
      <point x="596.736" y="1432.24"/>
      <point x="417.776" y="1432.24" type="curve" smooth="yes"/>
      <point x="225.576" y="1432.24"/>
      <point x="132.64" y="1358.424"/>
      <point x="75.128" y="1206.52" type="curve"/>
      <point x="169.0" y="1159.616" type="line"/>
      <point x="205.152" y="1237.256"/>
      <point x="257.0" y="1279.2559999999999"/>
      <point x="338.21599999999995" y="1279.2559999999999" type="curve" smooth="yes"/>
      <point x="412.248" y="1279.2559999999999"/>
      <point x="446.28" y="1245.92"/>
      <point x="446.28" y="1194.5839999999998" type="curve" smooth="yes"/>
      <point x="446.28" y="1127.096"/>
      <point x="414.128" y="1095.608"/>
      <point x="262.52" y="1075.608" type="curve"/>
      <point x="273.368" y="975.432" type="line"/>
      <point x="315.096" y="979.0079999999999" type="line" smooth="yes"/>
      <point x="458.312" y="991.312"/>
      <point x="495.584" y="957.672"/>
      <point x="495.584" y="885.4879999999999" type="curve" smooth="yes"/>
      <point x="495.584" y="793.696"/>
      <point x="434.52" y="763.4799999999999"/>
      <point x="334.784" y="763.4799999999999" type="curve" smooth="yes"/>
      <point x="224.816" y="763.4799999999999"/>
      <point x="174.336" y="846.328"/>
      <point x="159.64" y="846.328" type="curve" smooth="yes"/>
      <point x="105.58399999999999" y="846.328"/>
      <point x="73.008" y="811.0880000000001"/>
      <point x="73.008" y="760.8480000000001" type="curve" smooth="yes"/>
      <point x="73.008" y="699.544"/>
      <point x="130.824" y="647.76"/>
    </contour>
  </outline>
</glyph>
<glyph name="guillemotright" format="2">
  <advance width="1381.384"/>
  <unicode hex="00BB"/>
  <outline>
    <contour>
      <point x="398.288" y="477.55199999999996" type="line"/>
      <point x="398.288" y="566.448" type="line"/>
      <point x="104.128" y="143.33599999999998" type="line"/>
      <point x="235.136" y="22.416" type="line"/>
      <point x="689.936" y="424.62399999999997" type="line"/>
      <point x="689.936" y="619.376" type="line"/>
      <point x="235.136" y="1021.5840000000001" type="line"/>
      <point x="104.128" y="900.664" type="line"/>
    </contour>
    <contour>
      <point x="980.368" y="477.55199999999996" type="line"/>
      <point x="980.368" y="566.448" type="line"/>
      <point x="686.208" y="143.33599999999998" type="line"/>
      <point x="817.2159999999999" y="22.416" type="line"/>
      <point x="1272.016" y="424.62399999999997" type="line"/>
      <point x="1272.016" y="619.376" type="line"/>
      <point x="817.2159999999999" y="1021.5840000000001" type="line"/>
      <point x="686.208" y="900.664" type="line"/>
    </contour>
  </outline>
</glyph>
<glyph name="multiply" format="2">
  <advance width="1140.0"/>
  <unicode hex="00D7"/>
  <outline>
    <contour>
      <point x="154.66400000000002" y="249.144" type="line"/>
      <point x="300.312" y="103.49600000000001" type="line"/>
      <point x="985.336" y="788.52" type="line"/>
      <point x="839.688" y="934.168" type="line"/>
    </contour>
    <contour>
      <point x="154.66400000000002" y="788.52" type="line"/>
      <point x="839.688" y="103.49600000000001" type="line"/>
      <point x="985.336" y="249.144" type="line"/>
      <point x="300.312" y="934.168" type="line"/>
    </contour>
  </outline>
</glyph>
<glyph name="divide" format="2">
  <advance width="1140.0"/>
  <unicode hex="00F7"/>
  <outline>
    <contour>
      <point x="570.288" y="297.41600000000005" type="curve" smooth="yes"/>
      <point x="473.264" y="297.41600000000005"/>
      <point x="412.056" y="242.35999999999999"/>
      <point x="412.056" y="147.456" type="curve" smooth="yes"/>
      <point x="412.056" y="52.552"/>
      <point x="473.264" y="-3.5039999999999987"/>
      <point x="570.288" y="-3.5039999999999987" type="curve" smooth="yes"/>
      <point x="666.736" y="-3.5039999999999987"/>
      <point x="727.9440000000001" y="52.552"/>
      <point x="727.9440000000001" y="147.456" type="curve" smooth="yes"/>
      <point x="727.9440000000001" y="242.35999999999999"/>
      <point x="666.736" y="297.41600000000005"/>
    </contour>
    <contour>
      <point x="570.288" y="1041.1680000000001" type="curve" smooth="yes"/>
      <point x="473.264" y="1041.1680000000001"/>
      <point x="412.056" y="986.112"/>
      <point x="412.056" y="891.208" type="curve" smooth="yes"/>
      <point x="412.056" y="796.304"/>
      <point x="473.264" y="740.824"/>
      <point x="570.288" y="740.824" type="curve" smooth="yes"/>
      <point x="666.736" y="740.824"/>
      <point x="727.9440000000001" y="796.304"/>
      <point x="727.9440000000001" y="891.208" type="curve" smooth="yes"/>
      <point x="727.9440000000001" y="986.112"/>
      <point x="666.736" y="1041.1680000000001"/>
    </contour>
    <contour>
      <point x="125.264" y="621.44" type="line"/>
      <point x="125.264" y="416.224" type="line"/>
      <point x="1014.736" y="416.224" type="line"/>
      <point x="1014.736" y="621.44" type="line"/>
    </contour>
  </outline>
</glyph>
<glyph name="thorn" format="2">
  <advance width="1373.176"/>
  <unicode hex="00FE"/>
  <outline>
    <contour>
      <point x="166.00799999999998" y="1206.1200000000001" type="curve"/>
      <point x="166.00799999999998" y="-297.976" type="line"/>
      <point x="15.208" y="-335.008" type="line"/>
      <point x="15.208" y="-440.76" type="line"/>
      <point x="651.528" y="-440.76" type="line"/>
      <point x="651.528" y="-335.008" type="line"/>
      <point x="481.304" y="-299.128" type="line"/>
      <point x="481.304" y="275.664" type="line"/>
      <point x="465.15200000000004" y="275.664" type="line"/>
      <point x="470.912" y="110.944"/>
      <point x="597.2239999999999" y="-24.240000000000002"/>
      <point x="795.856" y="-24.240000000000002" type="curve" smooth="yes"/>
      <point x="1063.048" y="-24.240000000000002"/>
      <point x="1279.5040000000001" y="185.552"/>
      <point x="1279.5040000000001" y="556.24" type="curve" smooth="yes"/>
      <point x="1279.5040000000001" y="865.904"/>
      <point x="1119.68" y="1056.72"/>
      <point x="815.888" y="1056.72" type="curve" smooth="yes"/>
      <point x="730.552" y="1056.72"/>
      <point x="647.7760000000001" y="1030.472"/>
      <point x="411.88" y="881.704" type="curve"/>
      <point x="411.88" y="790.12" type="line"/>
      <point x="497.25600000000003" y="820.4639999999999"/>
      <point x="592.6320000000001" y="837.8639999999999"/>
      <point x="677.1360000000001" y="837.8639999999999" type="curve" smooth="yes"/>
      <point x="863.152" y="837.8639999999999"/>
      <point x="959.7760000000001" y="742.0640000000001"/>
      <point x="959.7760000000001" y="511.872" type="curve" smooth="yes"/>
      <point x="959.7760000000001" y="279.264"/>
      <point x="864.064" y="170.88"/>
      <point x="703.552" y="170.88" type="curve" smooth="yes"/>
      <point x="569.7199999999999" y="170.88"/>
      <point x="481.88" y="234.92000000000002"/>
      <point x="481.88" y="398.704" type="curve" smooth="yes"/>
      <point x="481.88" y="1242.384" type="line"/>
      <point x="504.424" y="1488.24" type="line"/>
      <point x="428.50399999999996" y="1488.24" type="line"/>
      <point x="-37.576" y="1406.3680000000002" type="line"/>
      <point x="-37.576" y="1304.896" type="line"/>
      <point x="40.424" y="1265.9411304347827"/>
      <point x="140.00799999999998" y="1218.912956521739"/>
    </contour>
  </outline>
</glyph>
<glyph name="iogonek" format="2">
  <advance width="767.32"/>
  <unicode hex="012F"/>
  <outline>
    <contour>
      <point x="387.096" y="1191.6480000000001" type="curve" smooth="yes"/>
      <point x="524.496" y="1191.6480000000001"/>
      <point x="597.4" y="1241.1599999999999"/>
      <point x="597.4" y="1341.2160000000001" type="curve" smooth="yes"/>
      <point x="597.4" y="1440.848"/>
      <point x="524.496" y="1488.24"/>
      <point x="387.096" y="1488.24" type="curve" smooth="yes"/>
      <point x="249.696" y="1488.24"/>
      <point x="176.792" y="1440.848"/>
      <point x="176.792" y="1341.2160000000001" type="curve" smooth="yes"/>
      <point x="176.792" y="1241.1599999999999"/>
      <point x="249.696" y="1191.6480000000001"/>
    </contour>
    <contour>
      <point x="577.76" y="1056.72" type="line"/>
      <point x="484.14399999999995" y="1056.72" type="line"/>
      <point x="73.24799999999999" y="945.12" type="line"/>
      <point x="73.24799999999999" y="865.8879999999999" type="line"/>
      <point x="134.248" y="823.0045579392983"/>
      <point x="220.8" y="765.1861594317286"/>
      <point x="242.79999999999998" y="749.72" type="curve"/>
      <point x="242.79999999999998" y="142.784" type="line"/>
      <point x="94.88000000000001" y="105.75200000000001" type="line"/>
      <point x="94.88000000000001" y="0.0" type="line"/>
      <point x="701.408" y="0.0" type="line"/>
      <point x="701.408" y="105.75200000000001" type="line"/>
      <point x="558.6719999999999" y="142.784" type="line"/>
      <point x="558.6719999999999" y="770.816" type="line"/>
    </contour>
    <contour>
      <point x="421.52" y="-76.576" type="curve" smooth="yes"/>
      <point x="501.056" y="67.048" type="line"/>
      <point x="407.608" y="67.048" type="line"/>
      <point x="306.28000000000003" y="-58.072" type="line" smooth="yes"/>
      <point x="204.864" y="-182.704"/>
      <point x="186.168" y="-237.008"/>
      <point x="186.168" y="-304.248" type="curve" smooth="yes"/>
      <point x="186.168" y="-403.0"/>
      <point x="238.56" y="-465.0"/>
      <point x="368.88800000000003" y="-465.0" type="curve" smooth="yes"/>
      <point x="441.736" y="-465.0"/>
      <point x="486.55199999999996" y="-447.576"/>
      <point x="568.76" y="-388.152" type="curve"/>
      <point x="568.76" y="-301.192" type="line"/>
      <point x="515.912" y="-326.072"/>
      <point x="490.064" y="-330.648"/>
      <point x="450.368" y="-330.648" type="curve" smooth="yes"/>
      <point x="394.79200000000003" y="-330.648"/>
      <point x="365.336" y="-302.464"/>
      <point x="365.336" y="-246.31199999999998" type="curve" smooth="yes"/>
      <point x="365.336" y="-203.39999999999998"/>
      <point x="372.944" y="-165.64"/>
    </contour>
  </outline>
</glyph>
<glyph name="kgreenlandic" format="2">
  <advance width="1477.84"/>
  <unicode hex="0138"/>
  <outline>
    <contour>
      <point x="715.944" y="446.072" type="line"/>
      <point x="997.9440000000001" y="116.976" type="line"/>
      <point x="998.52" y="98.54400000000001" type="line"/>
      <point x="998.52" y="0.0" type="line"/>
      <point x="1463.016" y="0.0" type="line"/>
      <point x="1463.016" y="98.54400000000001" type="line"/>
      <point x="1341.856" y="149.208" type="line"/>
      <point x="904.512" y="674.8399999999999" type="line"/>
      <point x="798.408" y="500.256" type="line"/>
      <point x="1237.24" y="900.392" type="line"/>
      <point x="1390.112" y="933.8480000000001" type="line"/>
      <point x="1390.112" y="1032.48" type="line"/>
      <point x="838.048" y="1032.48" type="line"/>
      <point x="838.048" y="933.8480000000001" type="line"/>
      <point x="991.712" y="899.512" type="line"/>
      <point x="733.6479999999999" y="629.1120000000001" type="line"/>
      <point x="451.496" y="629.1120000000001" type="line"/>
      <point x="451.496" y="446.072" type="line"/>
    </contour>
    <contour>
      <point x="576.6080000000001" y="1056.72" type="line"/>
      <point x="482.992" y="1056.72" type="line"/>
      <point x="72.096" y="945.12" type="line"/>
      <point x="72.096" y="865.8879999999999" type="line"/>
      <point x="133.096" y="823.0045579392983"/>
      <point x="219.648" y="765.1861594317286"/>
      <point x="241.648" y="749.72" type="curve"/>
      <point x="241.648" y="142.784" type="line"/>
      <point x="93.728" y="105.75200000000001" type="line"/>
      <point x="93.728" y="0.0" type="line"/>
      <point x="700.2560000000001" y="0.0" type="line"/>
      <point x="700.2560000000001" y="105.75200000000001" type="line"/>
      <point x="557.52" y="142.784" type="line"/>
      <point x="557.52" y="770.816" type="line"/>
    </contour>
  </outline>
</glyph>
<glyph name="Lslash" format="2">
  <advance width="1509.9759999999999"/>
  <unicode hex="0141"/>
  <outline>
    <contour>
      <point x="427.888" y="578.768" type="line"/>
      <point x="561.352" y="613.616" type="line"/>
      <point x="988.224" y="837.856" type="line"/>
      <point x="988.224" y="1015.592" type="line"/>
      <point x="561.352" y="791.352" type="line"/>
      <point x="427.888" y="756.5039999999999" type="line"/>
      <point x="128.944" y="599.608" type="line"/>
      <point x="128.944" y="421.872" type="line"/>
    </contour>
    <contour>
      <point x="1362.616" y="-85.144" type="line"/>
      <point x="1461.0" y="539.064" type="line"/>
      <point x="1292.656" y="539.064" type="line"/>
      <point x="1087.2559999999999" y="104.22399999999999" type="line"/>
      <point x="1199.5680000000002" y="214.512" type="line"/>
      <point x="492.992" y="214.512" type="line"/>
      <point x="487.48" y="0.0" type="line"/>
      <point x="1151.6399999999999" y="0.0" type="line"/>
      <point x="1219.928" y="-85.144" type="line"/>
    </contour>
    <contour>
      <point x="666.752" y="1248.5839999999998" type="line"/>
      <point x="850.88" y="1295.28" type="line"/>
      <point x="850.88" y="1414.0" type="line"/>
      <point x="128.94400000000002" y="1414.0" type="line"/>
      <point x="128.94400000000002" y="1295.28" type="line"/>
      <point x="313.072" y="1248.5839999999998" type="line"/>
      <point x="313.072" y="165.416" type="line"/>
      <point x="128.94400000000002" y="118.72" type="line"/>
      <point x="128.94400000000002" y="0.0" type="line"/>
      <point x="666.752" y="0.0" type="line"/>
    </contour>
  </outline>
</glyph>
<glyph name="lslash" format="2">
  <advance width="831.152"/>
  <unicode hex="0142"/>
  <outline>
    <contour>
      <point x="347.76" y="600.832" type="line"/>
      <point x="458.6" y="623.12" type="line"/>
      <point x="759.576" y="837.648" type="line"/>
      <point x="759.576" y="991.5519999999999" type="line"/>
      <point x="458.6" y="777.024" type="line"/>
      <point x="347.76" y="754.736" type="line"/>
      <point x="89.91199999999999" y="571.312" type="line"/>
      <point x="89.91199999999999" y="417.40799999999996" type="line"/>
    </contour>
    <contour>
      <point x="574.408" y="142.784" type="line"/>
      <point x="574.408" y="1242.384" type="line"/>
      <point x="596.952" y="1488.24" type="line"/>
      <point x="521.0319999999999" y="1488.24" type="line"/>
      <point x="54.952000000000005" y="1406.3680000000002" type="line"/>
      <point x="54.952000000000005" y="1304.896" type="line"/>
      <point x="132.952" y="1265.99397447148"/>
      <point x="232.536" y="1219.08734184284"/>
      <point x="258.536" y="1206.1200000000001" type="curve"/>
      <point x="258.536" y="142.784" type="line"/>
      <point x="110.616" y="105.75200000000001" type="line"/>
      <point x="110.616" y="0.0" type="line"/>
      <point x="717.144" y="0.0" type="line"/>
      <point x="717.144" y="105.75200000000001" type="line"/>
    </contour>
  </outline>
</glyph>
<glyph name="Eng" format="2">
  <advance width="1823.016"/>
  <unicode hex="014A"/>
  <outline>
    <contour>
      <point x="1391.664" y="472.23999999999995" type="line"/>
      <point x="741.896" y="1414.0" type="line"/>
      <point x="100.73599999999999" y="1414.0" type="line"/>
      <point x="100.73599999999999" y="1295.28" type="line"/>
      <point x="288.736" y="1240.952" type="line"/>
      <point x="288.736" y="164.56799999999998" type="line"/>
      <point x="109.216" y="118.72" type="line"/>
      <point x="109.216" y="0.0" type="line"/>
      <point x="696.96" y="0.0" type="line"/>
      <point x="696.96" y="118.72" type="line"/>
      <point x="507.072" y="164.56799999999998" type="line"/>
      <point x="507.072" y="1298.0" type="line"/>
      <point x="424.672" y="1281.888" type="line"/>
      <point x="1386.48" y="-101.344" type="line"/>
    </contour>
    <contour>
      <point x="1558.976" y="-59.96" type="curve" smooth="yes"/>
      <point x="1558.976" y="1249.432" type="line"/>
      <point x="1738.496" y="1295.28" type="line"/>
      <point x="1738.496" y="1414.0" type="line"/>
      <point x="1150.752" y="1414.0" type="line"/>
      <point x="1150.752" y="1295.28" type="line"/>
      <point x="1340.6399999999999" y="1249.432" type="line"/>
      <point x="1340.6399999999999" y="-56.72" type="line" smooth="yes"/>
      <point x="1340.6399999999999" y="-206.512"/>
      <point x="1286.968" y="-252.81600000000003"/>
      <point x="1156.936" y="-252.81600000000003" type="curve" smooth="yes"/>
      <point x="1065.608" y="-252.81600000000003"/>
      <point x="975.7040000000001" y="-155.856"/>
      <point x="942.344" y="-155.856" type="curve" smooth="yes"/>
      <point x="881.7439999999999" y="-155.856"/>
      <point x="832.328" y="-215.184"/>
      <point x="832.328" y="-286.29600000000005" type="curve" smooth="yes"/>
      <point x="832.328" y="-391.672"/>
      <point x="903.568" y="-465.0"/>
      <point x="1124.704" y="-465.0" type="curve" smooth="yes"/>
      <point x="1419.192" y="-465.0"/>
      <point x="1558.976" y="-339.736"/>
    </contour>
  </outline>
</glyph>
<glyph name="eng" format="2">
  <advance width="1431.3439999999998"/>
  <unicode hex="014B"/>
  <outline>
    <contour>
      <point x="557.368" y="827.456" type="line"/>
      <point x="472.536" y="1059.6000000000001" type="line"/>
      <point x="411.64" y="1059.6000000000001" type="line"/>
      <point x="71.944" y="933.6" type="line"/>
      <point x="71.944" y="865.888" type="line"/>
      <point x="162.94400000000002" y="796.122517327976"/>
      <point x="219.496" y="755.0663804262036"/>
      <point x="241.496" y="738.1999999999999" type="curve"/>
      <point x="241.496" y="142.784" type="line"/>
      <point x="93.576" y="105.75200000000001" type="line"/>
      <point x="93.576" y="0.0" type="line"/>
      <point x="671.272" y="0.0" type="line"/>
      <point x="671.272" y="105.75200000000001" type="line"/>
      <point x="557.368" y="136.848" type="line"/>
    </contour>
    <contour>
      <point x="963.464" y="25.648" type="line" smooth="yes"/>
      <point x="963.464" y="-93.648"/>
      <point x="955.312" y="-111.03999999999999"/>
      <point x="724.7040000000001" y="-337.808" type="curve"/>
      <point x="818.848" y="-465.0" type="line"/>
      <point x="1228.28" y="-227.904"/>
      <point x="1279.336" y="-155.45600000000002"/>
      <point x="1279.336" y="67.37599999999999" type="curve" smooth="yes"/>
      <point x="1279.336" y="734.808" type="line" smooth="yes"/>
      <point x="1279.336" y="943.6"/>
      <point x="1171.3999999999999" y="1056.72"/>
      <point x="937.736" y="1056.72" type="curve" smooth="yes"/>
      <point x="821.0640000000001" y="1056.72"/>
      <point x="794.576" y="1046.264"/>
      <point x="518.288" y="832.52" type="curve"/>
      <point x="535.984" y="763.84" type="line"/>
      <point x="610.928" y="785.6320000000001"/>
      <point x="698.8480000000001" y="799.696"/>
      <point x="774.92" y="799.696" type="curve" smooth="yes"/>
      <point x="914.424" y="799.696"/>
      <point x="963.464" y="752.6"/>
      <point x="963.464" y="644.824" type="curve" smooth="yes"/>
    </contour>
  </outline>
</glyph>
<glyph name="oe" format="2">
  <advance width="2027.352"/>
  <unicode hex="0153"/>
  <anchor x="1013.8720000000001" y="1032.48" name="top"/>
  <anchor x="1013.8720000000001" y="0.0" name="bottom"/>
  <outline>
    <contour>
      <point x="647.4399999999999" y="176.64000000000001" type="curve" smooth="yes"/>
      <point x="477.504" y="176.64000000000001"/>
      <point x="404.944" y="288.2"/>
      <point x="404.944" y="537.696" type="curve" smooth="yes"/>
      <point x="404.944" y="762.496"/>
      <point x="488.72" y="855.84"/>
      <point x="664.928" y="855.84" type="curve" smooth="yes"/>
      <point x="834.864" y="855.84"/>
      <point x="907.424" y="744.28"/>
      <point x="907.424" y="494.784" type="curve" smooth="yes"/>
      <point x="907.424" y="269.984"/>
      <point x="823.648" y="176.64000000000001"/>
    </contour>
    <contour>
      <point x="1158.184" y="270.30400000000003" type="curve"/>
      <point x="970.208" y="270.30400000000003" type="line"/>
      <point x="1054.264" y="96.728"/>
      <point x="1214.6480000000001" y="-24.240000000000002"/>
      <point x="1463.856" y="-24.240000000000002" type="curve" smooth="yes"/>
      <point x="1586.552" y="-24.240000000000002"/>
      <point x="1741.4959999999999" y="29.368000000000002"/>
      <point x="1916.472" y="142.656" type="curve"/>
      <point x="1916.472" y="263.496" type="line"/>
      <point x="1816.84" y="233.704"/>
      <point x="1707.5359999999998" y="207.42399999999998"/>
      <point x="1571.296" y="207.42399999999998" type="curve" smooth="yes"/>
      <point x="1314.712" y="207.42399999999998"/>
      <point x="1212.032" y="302.648"/>
      <point x="1212.032" y="578.0160000000001" type="curve" smooth="yes"/>
      <point x="1212.032" y="801.272"/>
      <point x="1287.9279999999999" y="880.6800000000001"/>
      <point x="1434.616" y="880.6800000000001" type="curve" smooth="yes"/>
      <point x="1565.112" y="880.6800000000001"/>
      <point x="1633.9119999999998" y="817.608"/>
      <point x="1633.3999999999999" y="585.1600000000001" type="curve"/>
      <point x="1744.824" y="630.328" type="line"/>
      <point x="1142.112" y="630.328" type="line"/>
      <point x="1145.568" y="484.152" type="line"/>
      <point x="1936.768" y="484.152" type="line"/>
      <point x="1926.9840000000002" y="875.8"/>
      <point x="1789.4799999999998" y="1056.72"/>
      <point x="1448.944" y="1056.72" type="curve" smooth="yes"/>
      <point x="1230.432" y="1056.72"/>
      <point x="1074.92" y="942.448"/>
      <point x="986.32" y="780.352" type="curve"/>
      <point x="1150.672" y="780.352" type="line"/>
      <point x="1060.648" y="942.72"/>
      <point x="902.32" y="1056.72"/>
      <point x="670.136" y="1056.72" type="curve" smooth="yes"/>
      <point x="307.30400000000003" y="1056.72"/>
      <point x="90.976" y="850.8399999999999"/>
      <point x="90.976" y="513.272" type="curve" smooth="yes"/>
      <point x="90.976" y="180.096"/>
      <point x="295.032" y="-24.240000000000002"/>
      <point x="642.232" y="-24.240000000000002" type="curve" smooth="yes"/>
      <point x="896.8960000000001" y="-24.240000000000002"/>
      <point x="1065.856" y="102.032"/>
    </contour>
  </outline>
</glyph>
<glyph name="Uogonek" format="2">
  <advance width="1767.7600000000002"/>
  <unicode hex="0172"/>
  <outline>
    <contour>
      <point x="1305.592" y="548.64" type="line" smooth="yes"/>
      <point x="1305.592" y="326.35200000000003"/>
      <point x="1193.3680000000002" y="232.59199999999998"/>
      <point x="958.144" y="232.59199999999998" type="curve" smooth="yes"/>
      <point x="717.5200000000001" y="232.59199999999998"/>
      <point x="598.208" y="326.056"/>
      <point x="598.208" y="540.232" type="curve" smooth="yes"/>
      <point x="598.208" y="1249.432" type="line"/>
      <point x="782.336" y="1295.28" type="line"/>
      <point x="782.336" y="1414.0" type="line"/>
      <point x="60.4" y="1414.0" type="line"/>
      <point x="60.4" y="1295.28" type="line"/>
      <point x="244.52800000000002" y="1249.432" type="line"/>
      <point x="244.52800000000002" y="524.544" type="line" smooth="yes"/>
      <point x="244.52800000000002" y="142.09599999999998"/>
      <point x="463.944" y="-24.240000000000002"/>
      <point x="907.1360000000001" y="-24.240000000000002" type="curve" smooth="yes"/>
      <point x="1307.1760000000002" y="-24.240000000000002"/>
      <point x="1523.9279999999999" y="158.60799999999998"/>
      <point x="1523.9279999999999" y="540.832" type="curve" smooth="yes"/>
      <point x="1523.9279999999999" y="1249.432" type="line"/>
      <point x="1708.056" y="1295.28" type="line"/>
      <point x="1708.056" y="1414.0" type="line"/>
      <point x="1121.464" y="1414.0" type="line"/>
      <point x="1121.464" y="1295.28" type="line"/>
      <point x="1305.592" y="1249.432" type="line"/>
    </contour>
    <contour>
      <point x="980.84" y="-77.152" type="curve" smooth="yes"/>
      <point x="1068.52" y="67.048" type="line"/>
      <point x="975.0719999999999" y="67.048" type="line"/>
      <point x="866.6" y="-58.224000000000004" type="line" smooth="yes"/>
      <point x="757.16" y="-184.04000000000002"/>
      <point x="736.736" y="-237.008"/>
      <point x="736.736" y="-304.248" type="curve" smooth="yes"/>
      <point x="736.736" y="-403.0"/>
      <point x="789.1279999999999" y="-465.0"/>
      <point x="919.456" y="-465.0" type="curve" smooth="yes"/>
      <point x="992.304" y="-465.0"/>
      <point x="1037.12" y="-447.576"/>
      <point x="1119.328" y="-388.152" type="curve"/>
      <point x="1119.328" y="-301.192" type="line"/>
      <point x="1066.48" y="-326.072"/>
      <point x="1040.632" y="-330.648"/>
      <point x="1000.9359999999999" y="-330.648" type="curve" smooth="yes"/>
      <point x="949.6" y="-330.648"/>
      <point x="915.904" y="-303.312"/>
      <point x="915.904" y="-250.976" type="curve" smooth="yes"/>
      <point x="915.904" y="-202.552"/>
      <point x="929.48" y="-166.216"/>
    </contour>
  </outline>
</glyph>
<glyph name="uni0237" format="2">
  <advance width="706.0400000000001"/>
  <unicode hex="0237"/>
  <anchor x="337.0" y="1032.48" name="top"/>
  <anchor x="335.48" y="-453.47999999999996" name="bottom"/>
  <outline>
    <contour>
      <point x="220.888" y="749.72" type="curve"/>
      <point x="220.888" y="25.648" type="line" smooth="yes"/>
      <point x="220.888" y="-93.648"/>
      <point x="212.736" y="-111.03999999999999"/>
      <point x="-17.872" y="-337.808" type="curve"/>
      <point x="76.272" y="-465.0" type="line"/>
      <point x="485.70399999999995" y="-227.904"/>
      <point x="536.76" y="-155.45600000000002"/>
      <point x="536.76" y="67.37599999999999" type="curve" smooth="yes"/>
      <point x="536.76" y="770.816" type="line"/>
      <point x="555.848" y="1056.72" type="line"/>
      <point x="462.23199999999997" y="1056.72" type="line"/>
      <point x="51.336" y="945.12" type="line"/>
      <point x="51.336" y="865.8879999999999" type="line"/>
      <point x="112.33600000000001" y="823.0045579392983"/>
      <point x="198.88799999999998" y="765.1861594317286"/>
    </contour>
  </outline>
</glyph>
<glyph name="uni0259" format="2">
  <advance width="1202.936"/>
  <unicode hex="0259"/>
  <outline>
    <contour>
      <point x="578.832" y="-24.240000000000002" type="curve" smooth="yes"/>
      <point x="912.9920000000001" y="-24.240000000000002"/>
      <point x="1110.96" y="190.88"/>
      <point x="1110.96" y="531.9359999999999" type="curve" smooth="yes"/>
      <point x="1110.96" y="873.872"/>
      <point x="906.8720000000001" y="1056.72"/>
      <point x="563.9200000000001" y="1056.72" type="curve" smooth="yes"/>
      <point x="441.22400000000005" y="1056.72"/>
      <point x="286.28" y="1003.112"/>
      <point x="111.304" y="889.8240000000001" type="curve"/>
      <point x="111.304" y="768.9839999999999" type="line"/>
      <point x="210.936" y="798.776"/>
      <point x="320.24" y="825.0559999999999"/>
      <point x="456.48" y="825.0559999999999" type="curve" smooth="yes"/>
      <point x="713.064" y="825.0559999999999"/>
      <point x="815.744" y="729.832"/>
      <point x="815.744" y="454.464" type="curve" smooth="yes"/>
      <point x="815.744" y="231.20800000000003"/>
      <point x="739.8480000000001" y="151.8"/>
      <point x="593.16" y="151.8" type="curve" smooth="yes"/>
      <point x="462.664" y="151.8"/>
      <point x="393.864" y="214.872"/>
      <point x="394.376" y="447.32" type="curve"/>
      <point x="282.952" y="402.152" type="line"/>
      <point x="885.664" y="402.152" type="line"/>
      <point x="882.208" y="548.328" type="line"/>
      <point x="91.008" y="548.328" type="line"/>
      <point x="100.792" y="156.67999999999998"/>
      <point x="238.296" y="-24.240000000000002"/>
    </contour>
  </outline>
</glyph>
<glyph name="hookabovecomb" format="2">
  <unicode hex="0309"/>
  <anchor x="0.0" y="1032.48" name="_top"/>
  <anchor x="0.0" y="1464.0" name="top"/>
  <outline>
    <contour>
      <point x="-208.056" y="1351.4959999999999" type="line"/>
      <point x="25.28" y="1355.3120000000001"/>
      <point x="53.464" y="1332.704"/>
      <point x="53.464" y="1291.64" type="curve" smooth="yes"/>
      <point x="53.464" y="1255.4560000000001"/>
      <point x="34.855999999999995" y="1235.5439999999999"/>
      <point x="-103.24000000000001" y="1209.6" type="curve"/>
      <point x="-85.24000000000001" y="1122.456" type="line"/>
      <point x="175.624" y="1165.2160000000001"/>
      <point x="244.592" y="1240.5439999999999"/>
      <point x="244.592" y="1343.5120000000002" type="curve" smooth="yes"/>
      <point x="244.592" y="1454.296"/>
      <point x="187.048" y="1511.872"/>
      <point x="-201.6" y="1513.632" type="curve"/>
    </contour>
  </outline>
</glyph>
<glyph name="uni030F" format="2">
  <unicode hex="030F"/>
  <anchor x="0.0" y="1032.48" name="_top"/>
  <anchor x="0.0" y="1464.0" name="top"/>
  <outline>
    <contour>
      <point x="-76.76" y="1138.0" type="line"/>
      <point x="-254.55999999999997" y="1464.0" type="line"/>
      <point x="-566.704" y="1464.0" type="line"/>
      <point x="-566.704" y="1407.856" type="line"/>
      <point x="-232.528" y="1138.0" type="line"/>
    </contour>
    <contour>
      <point x="270.704" y="1138.0" type="line"/>
      <point x="200.808" y="1464.0" type="line"/>
      <point x="-89.096" y="1464.0" type="line"/>
      <point x="-89.096" y="1415.4" type="line"/>
      <point x="121.936" y="1138.0" type="line"/>
    </contour>
  </outline>
</glyph>
<glyph name="emdash" format="2">
  <advance width="1424.128"/>
  <unicode hex="2014"/>
  <outline>
    <contour>
      <point x="132.824" y="611.048" type="line"/>
      <point x="132.824" y="432.952" type="line"/>
      <point x="1291.3039999999999" y="432.952" type="line"/>
      <point x="1291.3039999999999" y="611.048" type="line"/>
    </contour>
  </outline>
</glyph>
<glyph name="quoteright" format="2">
  <advance width="606.16"/>
  <unicode hex="2019"/>
  <outline>
    <contour>
      <point x="99.28" y="921.6" type="curve"/>
      <point x="155.696" y="810.464" type="line"/>
      <point x="437.856" y="924.216"/>
      <point x="523.456" y="1047.752"/>
      <point x="523.456" y="1239.192" type="curve" smooth="yes"/>
      <point x="523.456" y="1361.152"/>
      <point x="449.736" y="1434.7839999999999"/>
      <point x="323.504" y="1434.7839999999999" type="curve" smooth="yes"/>
      <point x="204.304" y="1434.7839999999999"/>
      <point x="135.19199999999998" y="1359.248"/>
      <point x="135.19199999999998" y="1258.56" type="curve" smooth="yes"/>
      <point x="135.19199999999998" y="1213.048"/>
      <point x="272.488" y="1171.2640000000001"/>
      <point x="272.488" y="1088.6879999999999" type="curve" smooth="yes"/>
      <point x="272.488" y="1024.6879999999999"/>
      <point x="240.824" y="986.448"/>
    </contour>
  </outline>
</glyph>
<glyph name="uni20A6" format="2">
  <advance width="1406.0"/>
  <unicode hex="20A6"/>
  <outline>
    <contour>
      <point x="1116.384" y="216.112" type="line"/>
      <point x="594.2639999999999" y="1414.0" type="line"/>
      <point x="60.51200000000001" y="1414.0" type="line"/>
      <point x="60.51200000000001" y="1303.9199999999998" type="line"/>
      <point x="209.12" y="1257.0800000000002" type="line"/>
      <point x="209.12" y="144.98399999999998" type="line"/>
      <point x="69.75200000000001" y="110.08" type="line"/>
      <point x="69.75200000000001" y="0.0" type="line"/>
      <point x="527.736" y="0.0" type="line"/>
      <point x="527.736" y="110.08" type="line"/>
      <point x="388.944" y="144.98399999999998" type="line"/>
      <point x="388.944" y="1319.312" type="line"/>
      <point x="316.44800000000004" y="1294.56" type="line"/>
      <point x="876.68" y="0.0" type="line"/>
      <point x="1217.304" y="0.0" type="line"/>
      <point x="1217.304" y="1269.016" type="line"/>
      <point x="1356.248" y="1303.9199999999998" type="line"/>
      <point x="1356.248" y="1414.0" type="line"/>
      <point x="899.688" y="1414.0" type="line"/>
      <point x="899.688" y="1303.9199999999998" type="line"/>
      <point x="1037.48" y="1269.016" type="line"/>
      <point x="1037.48" y="175.184" type="line"/>
    </contour>
    <contour>
      <point x="303.384" y="986.0" type="line"/>
      <point x="9.543999999999999" y="986.0" type="line"/>
      <point x="9.543999999999999" y="843.256" type="line"/>
      <point x="303.384" y="843.256" type="line"/>
    </contour>
    <contour>
      <point x="303.384" y="647.8879999999999" type="line"/>
      <point x="9.543999999999999" y="647.8879999999999" type="line"/>
      <point x="9.543999999999999" y="505.144" type="line"/>
      <point x="303.384" y="505.144" type="line"/>
    </contour>
    <contour>
      <point x="1137.856" y="843.256" type="line"/>
      <point x="1403.76" y="843.256" type="line"/>
      <point x="1403.76" y="986.0" type="line"/>
      <point x="1137.856" y="986.0" type="line"/>
    </contour>
    <contour>
      <point x="1137.856" y="505.144" type="line"/>
      <point x="1403.76" y="505.144" type="line"/>
      <point x="1403.76" y="647.8879999999999" type="line"/>
      <point x="1137.856" y="647.8879999999999" type="line"/>
    </contour>
  </outline>
</glyph>
<glyph name="trademark" format="2">
  <advance width="1877.1680000000001"/>
  <unicode hex="2122"/>
  <outline>
    <contour>
      <point x="335.704" y="1399.304" type="line"/>
      <point x="335.704" y="918.2719999999999" type="line"/>
      <point x="265.368" y="901.152" type="line"/>
      <point x="265.368" y="847.0" type="line"/>
      <point x="585.72" y="847.0" type="line"/>
      <point x="585.72" y="901.152" type="line"/>
      <point x="516.384" y="918.2719999999999" type="line"/>
      <point x="516.384" y="1399.304" type="line"/>
    </contour>
    <contour>
      <point x="1675.856" y="922.12" type="line"/>
      <point x="1650.3999999999999" y="1338.728" type="line"/>
      <point x="1722.16" y="1358.6960000000001" type="line"/>
      <point x="1722.16" y="1415.272" type="line"/>
      <point x="1392.272" y="1415.272" type="line"/>
      <point x="1271.32" y="1000.3199999999999" type="line"/>
      <point x="1286.048" y="1000.3199999999999" type="line"/>
      <point x="1163.52" y="1415.272" type="line"/>
      <point x="837.208" y="1415.272" type="line"/>
      <point x="837.208" y="1358.696" type="line"/>
      <point x="918.24" y="1333.88" type="line"/>
      <point x="893.512" y="919.2719999999999" type="line"/>
      <point x="821.6" y="903.576" type="line"/>
      <point x="821.6" y="847.0" type="line"/>
      <point x="1049.6000000000001" y="847.0" type="line"/>
      <point x="1049.6000000000001" y="903.576" type="line"/>
      <point x="990.6560000000001" y="918.2719999999999" type="line"/>
      <point x="1014.5360000000001" y="1323.76" type="line"/>
      <point x="1008.8080000000001" y="1322.76" type="line"/>
      <point x="1158.3039999999999" y="847.0" type="line"/>
      <point x="1324.8" y="847.0" type="line"/>
      <point x="1471.872" y="1331.76" type="line"/>
      <point x="1467.872" y="1332.76" type="line"/>
      <point x="1494.328" y="918.2719999999999" type="line"/>
      <point x="1434.384" y="903.576" type="line"/>
      <point x="1434.384" y="847.0" type="line"/>
      <point x="1747.192" y="847.0" type="line"/>
      <point x="1747.192" y="903.576" type="line"/>
    </contour>
    <contour>
      <point x="673.36" y="1314.28" type="line"/>
      <point x="624.088" y="1365.6399999999999" type="line"/>
      <point x="684.296" y="1203.792" type="line"/>
      <point x="762.688" y="1203.792" type="line"/>
      <point x="733.264" y="1452.3919999999998" type="line"/>
      <point x="672.1120000000001" y="1452.3919999999998" type="line"/>
      <point x="636.056" y="1399.152" type="line"/>
      <point x="697.6" y="1415.272" type="line"/>
      <point x="155.792" y="1415.272" type="line"/>
      <point x="216.456" y="1399.152" type="line"/>
      <point x="178.976" y="1452.3919999999998" type="line"/>
      <point x="117.824" y="1452.3919999999998" type="line"/>
      <point x="89.39999999999999" y="1203.792" type="line"/>
      <point x="167.21599999999998" y="1203.792" type="line"/>
      <point x="228.0" y="1365.6399999999999" type="line"/>
      <point x="178.152" y="1314.28" type="line"/>
    </contour>
  </outline>
</glyph>
<glyph name="minus" format="2">
  <advance width="1140.0"/>
  <unicode hex="2212"/>
  <outline>
    <contour>
      <point x="125.264" y="621.44" type="line"/>
      <point x="125.264" y="416.224" type="line"/>
      <point x="1014.736" y="416.224" type="line"/>
      <point x="1014.736" y="621.44" type="line"/>
    </contour>
  </outline>
</glyph>
<glyph name="greaterequal" format="2">
  <advance width="1140.0"/>
  <unicode hex="2265"/>
  <outline>
    <contour>
      <point x="1047.368" y="205.216" type="line"/>
      <point x="98.63199999999999" y="205.216" type="line"/>
      <point x="98.63199999999999" y="0.0" type="line"/>
      <point x="1047.368" y="0.0" type="line"/>
    </contour>
    <contour>
      <point x="1047.368" y="526.712" type="line"/>
      <point x="1047.368" y="763.104" type="line"/>
      <point x="98.63199999999999" y="1061.904" type="line"/>
      <point x="98.63199999999999" y="845.992" type="line"/>
      <point x="877.6320000000001" y="623.456" type="line"/>
      <point x="877.6320000000001" y="666.664" type="line"/>
      <point x="98.63199999999999" y="446.672" type="line"/>
      <point x="98.63199999999999" y="227.33599999999998" type="line"/>
    </contour>
  </outline>
</glyph>
<glyph name="Euro.lf" format="2">
  <advance width="1591.52"/>
  <outline>
    <contour>
      <point x="1137.04" y="613.328" type="line"/>
      <point x="111.608" y="613.328" type="line"/>
      <point x="111.608" y="470.584" type="line"/>
      <point x="1137.04" y="470.584" type="line"/>
    </contour>
    <contour>
      <point x="1137.04" y="951.44" type="line"/>
      <point x="111.608" y="951.44" type="line"/>
      <point x="111.608" y="808.696" type="line"/>
      <point x="1137.04" y="808.696" type="line"/>
    </contour>
    <contour>
      <point x="1027.752" y="1262.08" type="curve" smooth="yes"/>
      <point x="1231.1200000000001" y="1262.08"/>
      <point x="1306.96" y="1095.088"/>
      <point x="1348.712" y="1095.088" type="curve" smooth="yes"/>
      <point x="1422.28" y="1095.088"/>
      <point x="1482.608" y="1161.536"/>
      <point x="1482.608" y="1240.496" type="curve" smooth="yes"/>
      <point x="1482.608" y="1357.208"/>
      <point x="1345.7440000000001" y="1438.24"/>
      <point x="1039.184" y="1438.24" type="curve" smooth="yes"/>
      <point x="581.84" y="1438.24"/>
      <point x="334.488" y="1176.12"/>
      <point x="334.488" y="700.336" type="curve" smooth="yes"/>
      <point x="334.488" y="191.816"/>
      <point x="551.4159999999999" y="-24.240000000000002"/>
      <point x="1025.3600000000001" y="-24.240000000000002" type="curve" smooth="yes"/>
      <point x="1318.5520000000001" y="-24.240000000000002"/>
      <point x="1482.608" y="64.4"/>
      <point x="1482.608" y="180.416" type="curve" smooth="yes"/>
      <point x="1482.608" y="255.92"/>
      <point x="1423.008" y="318.912"/>
      <point x="1350.5919999999999" y="318.912" type="curve" smooth="yes"/>
      <point x="1308.84" y="318.912"/>
      <point x="1225.36" y="151.92000000000002"/>
      <point x="1027.752" y="151.92000000000002" type="curve" smooth="yes"/>
      <point x="780.792" y="151.92000000000002"/>
      <point x="675.144" y="275.512"/>
      <point x="675.144" y="709.992" type="curve" smooth="yes"/>
      <point x="675.144" y="1136.6960000000001"/>
      <point x="774.8" y="1262.08"/>
    </contour>
  </outline>
</glyph>
<glyph name="cent.lf" format="2">
  <advance width="1219.624"/>
  <outline>
    <contour>
      <point x="331.61600000000004" y="0.0" type="line"/>
      <point x="486.688" y="0.0" type="line"/>
      <point x="955.9359999999999" y="1414.0" type="line"/>
      <point x="801.288" y="1414.0" type="line"/>
    </contour>
    <contour>
      <point x="730.288" y="1245.088" type="curve" smooth="yes"/>
      <point x="337.672" y="1245.088"/>
      <point x="120.06400000000001" y="1027.6480000000001"/>
      <point x="120.06400000000001" y="688.912" type="curve" smooth="yes"/>
      <point x="120.06400000000001" y="346.976"/>
      <point x="323.88" y="164.12800000000001"/>
      <point x="654.3439999999999" y="164.12800000000001" type="curve" smooth="yes"/>
      <point x="770.8" y="164.12800000000001"/>
      <point x="910.472" y="213.768"/>
      <point x="1093.472" y="331.024" type="curve"/>
      <point x="1093.472" y="460.768" type="line"/>
      <point x="978.288" y="422.216"/>
      <point x="871.408" y="401.72799999999995"/>
      <point x="753.448" y="401.72799999999995" type="curve" smooth="yes"/>
      <point x="516.568" y="401.72799999999995"/>
      <point x="415.28000000000003" y="505.472"/>
      <point x="415.28000000000003" y="771.7439999999999" type="curve" smooth="yes"/>
      <point x="415.28000000000003" y="1000.3520000000001"/>
      <point x="504.536" y="1089.792"/>
      <point x="657.464" y="1089.792" type="curve" smooth="yes"/>
      <point x="723.0400000000001" y="1089.792"/>
      <point x="916.184" y="881.9359999999999"/>
      <point x="956.024" y="881.9359999999999" type="curve" smooth="yes"/>
      <point x="1031.36" y="881.9359999999999"/>
      <point x="1108.256" y="949.632"/>
      <point x="1108.256" y="1043.288" type="curve" smooth="yes"/>
      <point x="1108.256" y="1147.24"/>
      <point x="1017.1759999999999" y="1245.088"/>
    </contour>
  </outline>
</glyph>
<glyph name="colonmonetary.lf.1" format="2">
  <advance width="1315.1280000000002"/>
  <outline>
    <contour>
      <point x="259.256" y="-225.48" type="line"/>
      <point x="407.36" y="-225.48" type="line"/>
      <point x="860.856" y="1639.056" type="line"/>
      <point x="713.176" y="1639.056" type="line"/>
    </contour>
    <contour>
      <point x="574.672" y="-225.48" type="line"/>
      <point x="722.776" y="-225.48" type="line"/>
      <point x="1175.696" y="1639.056" type="line"/>
      <point x="1028.592" y="1639.056" type="line"/>
    </contour>
    <contour>
      <point x="778.2959999999999" y="1253.6" type="curve" smooth="yes"/>
      <point x="964.704" y="1253.6"/>
      <point x="1040.12" y="1087.88"/>
      <point x="1082.296" y="1087.88" type="curve" smooth="yes"/>
      <point x="1163.0720000000001" y="1087.88"/>
      <point x="1228.488" y="1154.752"/>
      <point x="1228.488" y="1237.104" type="curve" smooth="yes"/>
      <point x="1228.488" y="1361.8719999999998"/>
      <point x="1102.6480000000001" y="1438.24"/>
      <point x="788.456" y="1438.24" type="curve" smooth="yes"/>
      <point x="349.896" y="1437.664"/>
      <point x="118.64" y="1140.5120000000002"/>
      <point x="118.64" y="678.976" type="curve" smooth="yes"/>
      <point x="118.64" y="216.66400000000002"/>
      <point x="322.296" y="-24.240000000000002"/>
      <point x="683.28" y="-24.240000000000002" type="curve" smooth="yes"/>
      <point x="870.664" y="-24.240000000000002"/>
      <point x="995.2320000000001" y="18.784"/>
      <point x="1185.7359999999999" y="139.376" type="curve"/>
      <point x="1185.7359999999999" y="294.752" type="line"/>
      <point x="1040.008" y="239.928"/>
      <point x="961.4" y="224.776"/>
      <point x="835.768" y="224.776" type="curve" smooth="yes"/>
      <point x="575.24" y="224.776"/>
      <point x="458.99199999999996" y="376.512"/>
      <point x="458.99199999999996" y="740.96" type="curve" smooth="yes"/>
      <point x="458.99199999999996" y="1113.584"/>
      <point x="563.736" y="1253.6"/>
    </contour>
  </outline>
</glyph>
<glyph name="colonmonetary.lf" format="2">
  <advance width="1314.8880000000001"/>
  <outline>
    <contour>
      <point x="778.2959999999999" y="1253.6" type="curve" smooth="yes"/>
      <point x="964.704" y="1253.6"/>
      <point x="1040.1200000000001" y="1087.88"/>
      <point x="1082.296" y="1087.88" type="curve" smooth="yes"/>
      <point x="1163.0720000000001" y="1087.88"/>
      <point x="1228.488" y="1154.752"/>
      <point x="1228.488" y="1237.104" type="curve" smooth="yes"/>
      <point x="1228.488" y="1361.8719999999998"/>
      <point x="1102.6480000000001" y="1438.24"/>
      <point x="788.456" y="1438.24" type="curve" smooth="yes"/>
      <point x="349.89599999999996" y="1437.664"/>
      <point x="118.64" y="1140.5120000000002"/>
      <point x="118.64" y="678.976" type="curve" smooth="yes"/>
      <point x="118.64" y="216.66400000000002"/>
      <point x="322.296" y="-24.240000000000002"/>
      <point x="683.28" y="-24.240000000000002" type="curve" smooth="yes"/>
      <point x="870.664" y="-24.240000000000002"/>
      <point x="995.232" y="18.784"/>
      <point x="1185.7359999999999" y="139.376" type="curve"/>
      <point x="1185.7359999999999" y="294.752" type="line"/>
      <point x="1040.008" y="239.928"/>
      <point x="961.4" y="224.776"/>
      <point x="835.768" y="224.776" type="curve" smooth="yes"/>
      <point x="575.24" y="224.776"/>
      <point x="458.99199999999996" y="376.512"/>
      <point x="458.99199999999996" y="740.96" type="curve" smooth="yes"/>
      <point x="458.99199999999996" y="1113.584"/>
      <point x="563.736" y="1253.6"/>
    </contour>
    <contour>
      <point x="760.6160000000001" y="1322.472" type="line"/>
      <point x="838.456" y="1639.056" type="line"/>
      <point x="690.7760000000001" y="1639.056" type="line"/>
      <point x="612.9359999999999" y="1322.472" type="line"/>
    </contour>
    <contour>
      <point x="368.464" y="157.296" type="line"/>
      <point x="275.016" y="-225.48" type="line"/>
      <point x="423.11999999999995" y="-225.48" type="line"/>
      <point x="516.568" y="157.296" type="line"/>
    </contour>
    <contour>
      <point x="1052.416" y="1322.472" type="line"/>
      <point x="1130.256" y="1639.056" type="line"/>
      <point x="983.1519999999999" y="1639.056" type="line"/>
      <point x="905.312" y="1322.472" type="line"/>
    </contour>
    <contour>
      <point x="652.776" y="121.58399999999999" type="line"/>
      <point x="567.3919999999999" y="-225.48" type="line"/>
      <point x="715.4960000000001" y="-225.48" type="line"/>
      <point x="800.88" y="121.58399999999999" type="line"/>
    </contour>
  </outline>
</glyph>
<glyph name="dollar.lf.1" format="2">
  <advance width="1296.552"/>
  <outline>
    <contour>
      <point x="425.50399999999996" y="-220.296" type="line"/>
      <point x="575.7280000000001" y="-220.296" type="line"/>
      <point x="575.7280000000001" y="1633.872" type="line"/>
      <point x="425.50399999999996" y="1633.872" type="line"/>
    </contour>
    <contour>
      <point x="739.672" y="-220.296" type="line"/>
      <point x="889.896" y="-220.296" type="line"/>
      <point x="889.896" y="1633.872" type="line"/>
      <point x="739.672" y="1633.872" type="line"/>
    </contour>
    <contour>
      <point x="527.68" y="-24.240000000000002" type="curve" smooth="yes"/>
      <point x="968.376" y="-24.240000000000002"/>
      <point x="1184.4879999999998" y="131.40709706546275"/>
      <point x="1184.4879999999998" y="445.44" type="curve" smooth="yes"/>
      <point x="1184.4879999999998" y="665.368"/>
      <point x="1077.68" y="800.64"/>
      <point x="776.888" y="860.944" type="curve" smooth="yes"/>
      <point x="475.52" y="921.2479999999999"/>
      <point x="435.27200000000005" y="983.8639999999999"/>
      <point x="435.27200000000005" y="1084.0" type="curve" smooth="yes"/>
      <point x="435.27200000000005" y="1208.602711297071"/>
      <point x="518.408" y="1268.992"/>
      <point x="706.1199999999999" y="1268.992" type="curve" smooth="yes"/>
      <point x="873.048" y="1268.992"/>
      <point x="990.784" y="1092.208"/>
      <point x="1030.384" y="1092.208" type="curve" smooth="yes"/>
      <point x="1103.8000000000002" y="1092.208"/>
      <point x="1164.7040000000002" y="1157.504"/>
      <point x="1164.7040000000002" y="1237.0400000000002" type="curve" smooth="yes"/>
      <point x="1164.7040000000002" y="1378.152"/>
      <point x="1019.76" y="1438.24"/>
      <point x="741.144" y="1438.24" type="curve" smooth="yes"/>
      <point x="330.81600000000003" y="1438.24"/>
      <point x="126.704" y="1286.7539546599498"/>
      <point x="126.704" y="1007.7760000000001" type="curve" smooth="yes"/>
      <point x="126.704" y="807.144"/>
      <point x="216.64000000000001" y="663.8159999999999"/>
      <point x="519.0079999999999" y="604.6320000000001" type="curve" smooth="yes"/>
      <point x="822.528" y="546.024"/>
      <point x="870.648" y="476.408"/>
      <point x="870.648" y="363.096" type="curve" smooth="yes"/>
      <point x="870.648" y="225.87928825622777"/>
      <point x="758.968" y="145.008"/>
      <point x="563.128" y="145.008" type="curve" smooth="yes"/>
      <point x="395.776" y="145.008"/>
      <point x="278.04" y="321.792"/>
      <point x="238.44" y="321.792" type="curve" smooth="yes"/>
      <point x="165.872" y="321.792"/>
      <point x="104.96799999999999" y="256.496"/>
      <point x="104.96799999999999" y="176.95999999999998" type="curve" smooth="yes"/>
      <point x="104.96799999999999" y="35.848"/>
      <point x="249.488" y="-24.240000000000002"/>
    </contour>
  </outline>
</glyph>
<glyph name="dollar.lf" format="2">
  <advance width="1279.152"/>
  <outline>
    <contour>
      <point x="517.768" y="-24.240000000000002" type="curve" smooth="yes"/>
      <point x="958.4639999999999" y="-24.240000000000002"/>
      <point x="1174.576" y="131.40709706546275"/>
      <point x="1174.576" y="445.44" type="curve" smooth="yes"/>
      <point x="1174.576" y="669.6080000000001"/>
      <point x="1070.7359999999999" y="804.88"/>
      <point x="766.552" y="863.064" type="curve" smooth="yes"/>
      <point x="461.368" y="921.672"/>
      <point x="421.12" y="979.6239999999999"/>
      <point x="421.12" y="1089.088" type="curve" smooth="yes"/>
      <point x="421.12" y="1208.602711297071"/>
      <point x="508.496" y="1268.992"/>
      <point x="696.208" y="1268.992" type="curve" smooth="yes"/>
      <point x="863.136" y="1268.992"/>
      <point x="980.872" y="1092.208"/>
      <point x="1020.472" y="1092.208" type="curve" smooth="yes"/>
      <point x="1093.888" y="1092.208"/>
      <point x="1154.792" y="1157.504"/>
      <point x="1154.792" y="1237.0400000000002" type="curve" smooth="yes"/>
      <point x="1154.792" y="1378.152"/>
      <point x="1009.848" y="1438.24"/>
      <point x="731.232" y="1438.24" type="curve" smooth="yes"/>
      <point x="320.90400000000005" y="1438.24"/>
      <point x="116.792" y="1286.7539546599498"/>
      <point x="116.792" y="1007.7760000000001" type="curve" smooth="yes"/>
      <point x="116.792" y="801.2080000000001"/>
      <point x="203.76" y="658.728"/>
      <point x="506.976" y="595.304" type="curve" smooth="yes"/>
      <point x="811.344" y="532.456"/>
      <point x="860.736" y="475.136"/>
      <point x="860.736" y="354.616" type="curve" smooth="yes"/>
      <point x="860.736" y="219.9432882562278"/>
      <point x="757.536" y="145.008"/>
      <point x="553.216" y="145.008" type="curve" smooth="yes"/>
      <point x="385.86400000000003" y="145.008"/>
      <point x="268.128" y="321.792"/>
      <point x="228.52800000000002" y="321.792" type="curve" smooth="yes"/>
      <point x="155.96" y="321.792"/>
      <point x="95.056" y="256.496"/>
      <point x="95.056" y="176.95999999999998" type="curve" smooth="yes"/>
      <point x="95.056" y="35.848"/>
      <point x="239.57600000000002" y="-24.240000000000002"/>
    </contour>
    <contour>
      <point x="584.544" y="1335.04" type="line"/>
      <point x="584.544" y="1633.872" type="line"/>
      <point x="434.32" y="1633.872" type="line"/>
      <point x="434.32" y="1335.04" type="line"/>
    </contour>
    <contour>
      <point x="875.672" y="1335.04" type="line"/>
      <point x="875.672" y="1633.872" type="line"/>
      <point x="725.448" y="1633.872" type="line"/>
      <point x="725.448" y="1335.04" type="line"/>
    </contour>
    <contour>
      <point x="434.32" y="72.08" type="line"/>
      <point x="434.32" y="-220.296" type="line"/>
      <point x="584.544" y="-220.296" type="line"/>
      <point x="584.544" y="72.08" type="line"/>
    </contour>
    <contour>
      <point x="725.448" y="72.08" type="line"/>
      <point x="725.448" y="-220.296" type="line"/>
      <point x="875.672" y="-220.296" type="line"/>
      <point x="875.672" y="72.08" type="line"/>
    </contour>
  </outline>
</glyph>
<glyph name="five.lf" format="2">
  <advance width="1243.744"/>
  <outline>
    <contour>
      <point x="450.216" y="-24.240000000000002" type="curve" smooth="yes"/>
      <point x="875.112" y="-24.240000000000002"/>
      <point x="1102.984" y="169.24800000000002"/>
      <point x="1102.984" y="463.52" type="curve" smooth="yes"/>
      <point x="1102.984" y="729.096"/>
      <point x="975.272" y="870.584"/>
      <point x="327.672" y="937.088" type="curve"/>
      <point x="417.72" y="836.64" type="line"/>
      <point x="551.248" y="1278.616" type="line"/>
      <point x="431.384" y="1142.32" type="line"/>
      <point x="1076.424" y="1142.32" type="line"/>
      <point x="1183.496" y="1454.0" type="line"/>
      <point x="877.384" y="1414.0" type="line"/>
      <point x="375.40000000000003" y="1414.0" type="line"/>
      <point x="184.55200000000002" y="664.496" type="line"/>
      <point x="737.112" y="616.928"/>
      <point x="827.552" y="535.2479999999999"/>
      <point x="827.552" y="388.11199999999997" type="curve" smooth="yes"/>
      <point x="827.552" y="238.416"/>
      <point x="722.7760000000001" y="149.61599999999999"/>
      <point x="499.52" y="149.61599999999999" type="curve" smooth="yes"/>
      <point x="367.336" y="149.61599999999999"/>
      <point x="225.712" y="329.28"/>
      <point x="180.07999999999998" y="329.28" type="curve" smooth="yes"/>
      <point x="115.696" y="329.28"/>
      <point x="47.672" y="263.92"/>
      <point x="47.672" y="173.504" type="curve" smooth="yes"/>
      <point x="47.672" y="57.455999999999996"/>
      <point x="144.60799999999998" y="-24.240000000000002"/>
    </contour>
  </outline>
</glyph>
<glyph name="florin.lf" format="2">
  <advance width="1725.656"/>
  <outline>
    <contour>
      <point x="394.648" y="639.28" type="line"/>
      <point x="1393.864" y="639.28" type="line"/>
      <point x="1393.864" y="782.024" type="line"/>
      <point x="394.648" y="782.024" type="line"/>
    </contour>
    <contour>
      <point x="356.8" y="-247.23999999999998" type="curve" smooth="yes"/>
      <point x="684.4399999999999" y="-247.23999999999998"/>
      <point x="910.136" y="-61.824"/>
      <point x="972.864" y="305.584" type="curve" smooth="yes"/>
      <point x="1092.872" y="1004.4720000000001" type="line" smooth="yes"/>
      <point x="1128.6960000000001" y="1208.3439999999998"/>
      <point x="1190.888" y="1270.72"/>
      <point x="1291.4160000000002" y="1270.72" type="curve" smooth="yes"/>
      <point x="1420.1599999999999" y="1270.72"/>
      <point x="1519.5839999999998" y="1125.04"/>
      <point x="1543.52" y="1125.04" type="curve" smooth="yes"/>
      <point x="1620.0880000000002" y="1125.04"/>
      <point x="1673.9279999999999" y="1185.304"/>
      <point x="1673.9279999999999" y="1264.112" type="curve" smooth="yes"/>
      <point x="1673.9279999999999" y="1378.2160000000001"/>
      <point x="1572.6399999999999" y="1438.24"/>
      <point x="1354.864" y="1438.24" type="curve" smooth="yes"/>
      <point x="1017.8960000000001" y="1438.24"/>
      <point x="815.672" y="1242.2240000000002"/>
      <point x="754.064" y="885.4159999999999" type="curve" smooth="yes"/>
      <point x="638.72" y="219.176" type="line" smooth="yes"/>
      <point x="599.08" y="-9.712000000000003"/>
      <point x="531.8" y="-79.72"/>
      <point x="417.704" y="-79.72" type="curve" smooth="yes"/>
      <point x="301.67999999999995" y="-79.72"/>
      <point x="206.92" y="65.96000000000001"/>
      <point x="183.40800000000002" y="65.96000000000001" type="curve" smooth="yes"/>
      <point x="106.83999999999999" y="65.96000000000001"/>
      <point x="53.0" y="5.695999999999998"/>
      <point x="53.0" y="-73.112" type="curve" smooth="yes"/>
      <point x="53.0" y="-187.21599999999998"/>
      <point x="141.568" y="-247.23999999999998"/>
    </contour>
  </outline>
</glyph>
<glyph name="one.lf" format="2">
  <advance width="1062.296"/>
  <outline>
    <contour>
      <point x="431.12" y="167.83999999999997" type="line"/>
      <point x="180.056" y="113.84" type="line"/>
      <point x="180.056" y="0.0" type="line"/>
      <point x="1009.592" y="0.0" type="line"/>
      <point x="1009.592" y="113.84" type="line"/>
      <point x="773.528" y="167.83999999999997" type="line"/>
      <point x="773.528" y="1425.52" type="line"/>
      <point x="512.8639999999999" y="1425.52" type="line"/>
      <point x="42.704" y="1203.84" type="line"/>
      <point x="98.88" y="1031.552" type="line"/>
      <point x="513.168" y="1157.4" type="line"/>
      <point x="431.12" y="1308.52" type="line"/>
    </contour>
  </outline>
</glyph>
<glyph name="sterling.lf" format="2">
  <advance width="1422.176"/>
  <outline>
    <contour>
      <point x="1103.096" y="917.832" type="curve"/>
      <point x="1289.528" y="966.816" type="line"/>
      <point x="1233.0240000000001" y="1278.24"/>
      <point x="1081.568" y="1438.24"/>
      <point x="764.432" y="1438.24" type="curve" smooth="yes"/>
      <point x="398.728" y="1438.24"/>
      <point x="214.472" y="1263.72"/>
      <point x="208.92800000000003" y="1034.608" type="curve" smooth="yes"/>
      <point x="203.11200000000002" y="735.12"/>
      <point x="420.6" y="662.784"/>
      <point x="420.6" y="464.056" type="curve" smooth="yes"/>
      <point x="420.6" y="359.024"/>
      <point x="347.328" y="269.144"/>
      <point x="192.936" y="147.128" type="curve"/>
      <point x="192.936" y="0.0" type="line"/>
      <point x="1032.752" y="0.0" type="line"/>
      <point x="1078.2240000000002" y="-74.54400000000001" type="line"/>
      <point x="1214.88" y="-74.54400000000001" type="line"/>
      <point x="1326.992" y="491.36" type="line"/>
      <point x="1189.944" y="491.36" type="line"/>
      <point x="953.3199999999999" y="161.488" type="line"/>
      <point x="1233.7440000000001" y="299.08799999999997" type="line"/>
      <point x="387.22400000000005" y="299.08799999999997" type="line"/>
      <point x="373.696" y="208.55200000000002" type="line"/>
      <point x="595.744" y="360.91999999999996"/>
      <point x="679.552" y="494.144"/>
      <point x="679.552" y="605.328" type="curve" smooth="yes"/>
      <point x="679.552" y="726.4459847328244"/>
      <point x="569.304" y="820.3040000000001"/>
      <point x="569.304" y="974.152" type="curve" smooth="yes"/>
      <point x="569.304" y="1106.616"/>
      <point x="645.5840000000001" y="1188.0800000000002"/>
      <point x="810.744" y="1188.0800000000002" type="curve" smooth="yes"/>
      <point x="978.784" y="1188.0800000000002"/>
      <point x="1061.52" y="1103.584"/>
    </contour>
    <contour>
      <point x="990.8240000000001" y="782.024" type="line"/>
      <point x="89.944" y="782.024" type="line"/>
      <point x="89.944" y="639.28" type="line"/>
      <point x="990.8240000000001" y="639.28" type="line"/>
    </contour>
  </outline>
</glyph>
<glyph name="tildecomb.case" format="2">
  <anchor x="0.0" y="1414.0" name="_UCtop"/>
  <anchor x="0.0" y="1793.0" name="UCtop"/>
  <outline>
    <contour>
      <point x="356.68800000000005" y="1862.512" type="curve"/>
      <point x="197.344" y="1862.512" type="line"/>
      <point x="181.856" y="1759.496"/>
      <point x="164.552" y="1739.04"/>
      <point x="121.58399999999999" y="1739.04" type="curve" smooth="yes"/>
      <point x="51.888000000000005" y="1739.04"/>
      <point x="-34.728" y="1865.392"/>
      <point x="-150.88" y="1865.392" type="curve" smooth="yes"/>
      <point x="-277.024" y="1865.392"/>
      <point x="-336.992" y="1812.272"/>
      <point x="-363.6" y="1551.488" type="curve"/>
      <point x="-204.256" y="1551.488" type="line"/>
      <point x="-188.768" y="1654.504"/>
      <point x="-171.464" y="1674.96"/>
      <point x="-128.49599999999998" y="1674.96" type="curve" smooth="yes"/>
      <point x="-58.800000000000004" y="1674.96"/>
      <point x="27.816000000000003" y="1548.608"/>
      <point x="143.968" y="1548.608" type="curve" smooth="yes"/>
      <point x="270.112" y="1548.608"/>
      <point x="330.08000000000004" y="1601.728"/>
    </contour>
  </outline>
</glyph>
<glyph name="two.lf" format="2">
  <advance width="1357.528"/>
  <outline>
    <contour>
      <point x="917.9440000000001" y="185.67999999999998" type="line"/>
      <point x="1158.928" y="299.08799999999997" type="line"/>
      <point x="348.16" y="299.08799999999997" type="line"/>
      <point x="252.59199999999998" y="155.04000000000002" type="line"/>
      <point x="710.168" y="494.32" type="line" smooth="yes"/>
      <point x="1067.416" y="725.504"/>
      <point x="1146.552" y="847.56"/>
      <point x="1146.552" y="1042.0639999999999" type="curve" smooth="yes"/>
      <point x="1146.552" y="1293.4240000000002"/>
      <point x="961.32" y="1438.24"/>
      <point x="690.728" y="1438.24" type="curve" smooth="yes"/>
      <point x="353.264" y="1438.24"/>
      <point x="150.16" y="1277.76"/>
      <point x="71.03999999999999" y="907.112" type="curve"/>
      <point x="253.984" y="871.056" type="line"/>
      <point x="317.688" y="1086.68"/>
      <point x="402.816" y="1161.8639999999998"/>
      <point x="561.8000000000001" y="1161.8639999999998" type="curve" smooth="yes"/>
      <point x="717.896" y="1161.8639999999998"/>
      <point x="789.024" y="1082.8319999999999"/>
      <point x="789.024" y="939.944" type="curve" smooth="yes"/>
      <point x="789.024" y="827.096"/>
      <point x="741.6880000000001" y="721.0"/>
      <point x="536.352" y="532.808" type="curve" smooth="yes"/>
      <point x="139.632" y="167.13600000000002" type="line"/>
      <point x="139.632" y="0.0" type="line"/>
      <point x="979.76" y="0.0" type="line"/>
      <point x="1035.328" y="-74.54400000000001" type="line"/>
      <point x="1175.4720000000002" y="-74.54400000000001" type="line"/>
      <point x="1274.368" y="491.36" type="line"/>
      <point x="1124.2559999999999" y="491.36" type="line"/>
    </contour>
  </outline>
</glyph>
<glyph name="uni0302_gravecomb.case" format="2">
  <anchor x="0.0" y="1414.0" name="_UCtop"/>
  <anchor x="0.0" y="1870.0" name="UCtop"/>
  <outline>
    <contour>
      <point x="-319.472" y="1741.0" type="line"/>
      <point x="-438.36" y="2008.0" type="line"/>
      <point x="-744.504" y="2008.0" type="line"/>
      <point x="-744.504" y="1957.976" type="line"/>
      <point x="-481.416" y="1741.0" type="line"/>
    </contour>
    <contour>
      <point x="34.784" y="1736.712" type="line"/>
      <point x="-34.784" y="1736.712" type="line"/>
      <point x="172.496" y="1544.0" type="line"/>
      <point x="383.408" y="1544.0" type="line"/>
      <point x="123.408" y="1870.0" type="line"/>
      <point x="-123.408" y="1870.0" type="line"/>
      <point x="-383.408" y="1544.0" type="line"/>
      <point x="-172.496" y="1544.0" type="line"/>
    </contour>
  </outline>
</glyph>
<glyph name="uni0302_gravecomb" format="2">
  <anchor x="0.0" y="1032.48" name="_top"/>
  <outline>
    <contour>
      <point x="-319.472" y="1335.0" type="line"/>
      <point x="-438.36" y="1602.0" type="line"/>
      <point x="-744.504" y="1602.0" type="line"/>
      <point x="-744.504" y="1551.976" type="line"/>
      <point x="-481.416" y="1335.0" type="line"/>
    </contour>
    <contour>
      <point x="34.78399999999999" y="1330.712" type="line"/>
      <point x="-34.78399999999999" y="1330.712" type="line"/>
      <point x="172.49599999999998" y="1138.0" type="line"/>
      <point x="383.408" y="1138.0" type="line"/>
      <point x="123.408" y="1464.0" type="line"/>
      <point x="-123.408" y="1464.0" type="line"/>
      <point x="-383.408" y="1138.0" type="line"/>
      <point x="-172.49599999999998" y="1138.0" type="line"/>
    </contour>
  </outline>
</glyph>
<glyph name="uni0302_hookabovecomb" format="2">
  <anchor x="0.0" y="1032.48" name="_top"/>
  <outline>
    <contour>
      <point x="34.78399999999999" y="1330.712" type="line"/>
      <point x="-34.78399999999999" y="1330.712" type="line"/>
      <point x="172.49599999999998" y="1138.0" type="line"/>
      <point x="383.408" y="1138.0" type="line"/>
      <point x="123.408" y="1464.0" type="line"/>
      <point x="-123.408" y="1464.0" type="line"/>
      <point x="-383.408" y="1138.0" type="line"/>
      <point x="-172.49599999999998" y="1138.0" type="line"/>
    </contour>
    <contour>
      <point x="322.22400000000005" y="1404.664" type="curve"/>
      <point x="339.952" y="1314.1280000000002" type="line"/>
      <point x="575.968" y="1357.008"/>
      <point x="635.0559999999999" y="1437.76"/>
      <point x="635.0559999999999" y="1546.848" type="curve" smooth="yes"/>
      <point x="635.0559999999999" y="1662.024"/>
      <point x="579.816" y="1724.176"/>
      <point x="201.536" y="1725.36" type="curve"/>
      <point x="195.07999999999998" y="1563.8" type="line"/>
      <point x="418.62399999999997" y="1568.192"/>
      <point x="444.504" y="1533.04"/>
      <point x="444.504" y="1491.28" type="curve" smooth="yes"/>
      <point x="444.504" y="1450.2160000000001"/>
      <point x="422.744" y="1426.3039999999999"/>
    </contour>
  </outline>
</glyph>
<glyph name="uni0306_acutecomb.case" format="2">
  <anchor x="0.0" y="1414.0" name="_UCtop"/>
  <outline>
    <contour>
      <point x="-52.84" y="1721.0" type="line"/>
      <point x="65.48" y="1721.0" type="line"/>
      <point x="312.632" y="1969.6399999999999" type="line"/>
      <point x="312.632" y="2004.0" type="line"/>
      <point x="70.232" y="2004.0" type="line"/>
    </contour>
    <contour>
      <point x="0.0" y="1637.472" type="curve" smooth="yes"/>
      <point x="-120.03200000000001" y="1637.472"/>
      <point x="-170.60799999999998" y="1666.9920000000002"/>
      <point x="-191.792" y="1742.0" type="curve"/>
      <point x="-331.74399999999997" y="1742.0" type="line"/>
      <point x="-296.712" y="1550.816"/>
      <point x="-196.112" y="1508.088"/>
      <point x="0.0" y="1508.088" type="curve" smooth="yes"/>
      <point x="196.112" y="1508.088"/>
      <point x="296.712" y="1550.816"/>
      <point x="331.74399999999997" y="1742.0" type="curve"/>
      <point x="191.792" y="1742.0" type="line"/>
      <point x="170.60799999999998" y="1667.416"/>
      <point x="120.03200000000001" y="1637.472"/>
    </contour>
  </outline>
</glyph>
<glyph name="uni0307.case" format="2">
  <anchor x="0.0" y="1414.0" name="_UCtop"/>
  <anchor x="0.0" y="1707.0" name="_mid"/>
  <anchor x="0.0" y="1793.0" name="UCtop"/>
  <outline>
    <contour>
      <point x="0.0" y="1571.8880000000001" type="curve" smooth="yes"/>
      <point x="123.32" y="1571.8880000000001"/>
      <point x="180.52800000000002" y="1619.4"/>
      <point x="180.52800000000002" y="1709.424" type="curve" smooth="yes"/>
      <point x="180.52800000000002" y="1799.6000000000001"/>
      <point x="123.32" y="1842.1119999999999"/>
      <point x="0.0" y="1842.1119999999999" type="curve" smooth="yes"/>
      <point x="-123.32" y="1842.1119999999999"/>
      <point x="-180.52800000000002" y="1799.6000000000001"/>
      <point x="-180.52800000000002" y="1709.424" type="curve" smooth="yes"/>
      <point x="-180.52800000000002" y="1619.4"/>
      <point x="-123.32" y="1571.8880000000001"/>
    </contour>
  </outline>
</glyph>
<glyph name="uni0308.case" format="2">
  <anchor x="0.0" y="1414.0" name="_UCtop"/>
  <anchor x="0.0" y="1793.0" name="UCtop"/>
  <outline>
    <contour>
      <point x="-235.6" y="1578.008" type="curve" smooth="yes"/>
      <point x="-133.488" y="1578.008"/>
      <point x="-86.248" y="1623.672"/>
      <point x="-86.248" y="1709.424" type="curve" smooth="yes"/>
      <point x="-86.248" y="1795.328"/>
      <point x="-133.488" y="1835.992"/>
      <point x="-235.6" y="1835.992" type="curve" smooth="yes"/>
      <point x="-337.136" y="1835.992"/>
      <point x="-384.952" y="1795.328"/>
      <point x="-384.952" y="1709.424" type="curve" smooth="yes"/>
      <point x="-384.952" y="1623.672"/>
      <point x="-337.136" y="1578.008"/>
    </contour>
    <contour>
      <point x="235.6" y="1578.008" type="curve" smooth="yes"/>
      <point x="337.136" y="1578.008"/>
      <point x="384.952" y="1623.672"/>
      <point x="384.952" y="1709.424" type="curve" smooth="yes"/>
      <point x="384.952" y="1795.328"/>
      <point x="337.136" y="1835.992"/>
      <point x="235.6" y="1835.992" type="curve" smooth="yes"/>
      <point x="133.488" y="1835.992"/>
      <point x="86.248" y="1795.328"/>
      <point x="86.248" y="1709.424" type="curve" smooth="yes"/>
      <point x="86.248" y="1623.672"/>
      <point x="133.488" y="1578.008"/>
    </contour>
  </outline>
</glyph>
<glyph name="uni0312.case" format="2">
  <anchor x="0.0" y="1414.0" name="_UCtop"/>
  <anchor x="0.0" y="1870.0" name="UCtop"/>
  <outline>
    <contour>
      <point x="145.752" y="1658.936" type="curve" smooth="yes"/>
      <point x="145.752" y="1680.392"/>
      <point x="33.208" y="1686.936"/>
      <point x="33.208" y="1748.6319999999998" type="curve" smooth="yes"/>
      <point x="33.208" y="1787.48"/>
      <point x="56.967999999999996" y="1813.0"/>
      <point x="150.88" y="1827.336" type="curve"/>
      <point x="134.0" y="1912.328" type="line"/>
      <point x="-82.416" y="1878.96"/>
      <point x="-136.416" y="1781.2640000000001"/>
      <point x="-136.416" y="1684.0240000000001" type="curve" smooth="yes"/>
      <point x="-136.416" y="1571.6960000000001"/>
      <point x="-81.264" y="1533.0"/>
      <point x="4.912000000000001" y="1533.0" type="curve" smooth="yes"/>
      <point x="104.47999999999999" y="1533.0"/>
      <point x="145.752" y="1585.76"/>
    </contour>
  </outline>
</glyph>
<glyph name="uni20A6.lf" format="2">
  <advance width="1675.744"/>
  <outline>
    <contour>
      <point x="1261.432" y="216.112" type="line"/>
      <point x="718.1120000000001" y="1414.0" type="line"/>
      <point x="184.36" y="1414.0" type="line"/>
      <point x="184.36" y="1303.9199999999998" type="line"/>
      <point x="332.968" y="1257.0800000000002" type="line"/>
      <point x="332.968" y="144.98399999999998" type="line"/>
      <point x="193.6" y="110.08" type="line"/>
      <point x="193.6" y="0.0" type="line"/>
      <point x="651.5840000000001" y="0.0" type="line"/>
      <point x="651.5840000000001" y="110.08" type="line"/>
      <point x="512.792" y="144.98399999999998" type="line"/>
      <point x="512.792" y="1319.312" type="line"/>
      <point x="440.296" y="1294.56" type="line"/>
      <point x="1021.728" y="0.0" type="line"/>
      <point x="1362.352" y="0.0" type="line"/>
      <point x="1362.352" y="1269.016" type="line"/>
      <point x="1501.296" y="1303.9199999999998" type="line"/>
      <point x="1501.296" y="1414.0" type="line"/>
      <point x="1044.736" y="1414.0" type="line"/>
      <point x="1044.736" y="1303.9199999999998" type="line"/>
      <point x="1182.528" y="1269.016" type="line"/>
      <point x="1182.528" y="175.184" type="line"/>
    </contour>
    <contour>
      <point x="1284.088" y="505.144" type="line"/>
      <point x="1565.768" y="505.144" type="line"/>
      <point x="1565.768" y="647.8879999999999" type="line"/>
      <point x="1284.088" y="647.8879999999999" type="line"/>
    </contour>
    <contour>
      <point x="416.136" y="647.8879999999999" type="line"/>
      <point x="116.432" y="647.8879999999999" type="line"/>
      <point x="116.432" y="505.144" type="line"/>
      <point x="416.136" y="505.144" type="line"/>
    </contour>
    <contour>
      <point x="1284.088" y="843.256" type="line"/>
      <point x="1565.768" y="843.256" type="line"/>
      <point x="1565.768" y="986.0" type="line"/>
      <point x="1284.088" y="986.0" type="line"/>
    </contour>
    <contour>
      <point x="416.136" y="986.0" type="line"/>
      <point x="116.432" y="986.0" type="line"/>
      <point x="116.432" y="843.256" type="line"/>
      <point x="416.136" y="843.256" type="line"/>
    </contour>
  </outline>
</glyph>
<glyph name="yen.lf" format="2">
  <advance width="1635.2959999999998"/>
  <outline>
    <contour>
      <point x="1378.016" y="613.328" type="line"/>
      <point x="267.88" y="613.328" type="line"/>
      <point x="267.88" y="470.584" type="line"/>
      <point x="1378.016" y="470.584" type="line"/>
    </contour>
    <contour>
      <point x="1378.016" y="951.44" type="line"/>
      <point x="267.88" y="951.44" type="line"/>
      <point x="267.88" y="808.696" type="line"/>
      <point x="1378.016" y="808.696" type="line"/>
    </contour>
    <contour>
      <point x="1002.928" y="909.024" type="line"/>
      <point x="1424.0159999999998" y="1259.16" type="line"/>
      <point x="1575.872" y="1298.7359999999999" type="line"/>
      <point x="1575.872" y="1414.0" type="line"/>
      <point x="1059.8" y="1414.0" type="line"/>
      <point x="1059.8" y="1298.7359999999999" type="line"/>
      <point x="1216.3280000000002" y="1259.736" type="line"/>
      <point x="885.7679999999999" y="979.376" type="line"/>
      <point x="953.136" y="983.344" type="line"/>
      <point x="638.784" y="1259.1599999999999" type="line"/>
      <point x="801.464" y="1298.7359999999999" type="line"/>
      <point x="801.464" y="1414.0" type="line"/>
      <point x="57.727999999999994" y="1414.0" type="line"/>
      <point x="57.727999999999994" y="1298.7359999999999" type="line"/>
      <point x="225.92000000000002" y="1259.736" type="line"/>
      <point x="660.52" y="903.752" type="line"/>
      <point x="660.52" y="164.384" type="line"/>
      <point x="427.312" y="113.84" type="line"/>
      <point x="427.312" y="0.0" type="line"/>
      <point x="1227.472" y="0.0" type="line"/>
      <point x="1227.472" y="113.84" type="line"/>
      <point x="1002.928" y="164.384" type="line"/>
    </contour>
  </outline>
</glyph>
